<svg width="122" height="28" viewBox="0 0 122 28" fill="none" xmlns="http://www.w3.org/2000/svg">
<path d="M13.9405 10.0156L22.6788 7.81055L10.7237 25.5537L15.3907 12.3535L10.3458 13.7783L13.0538 6.49316C10.5368 6.28361 5.25843 7.03935 4.22078 11.8379C3.79871 14.3478 4.67881 19.122 11.9034 19.2617L10.7247 23.0215C8.20992 23.0419 2.66601 21.7335 0.614333 16.292C-0.600058 13.5633 -0.643499 6.93698 6.50984 3.76855C7.46285 3.20375 12.0601 2.48827 16.9141 2.48828L13.9405 10.0156ZM25.3009 2.44629C28.6759 2.44629 34.1977 7.32196 28.4239 11.8604C31.7104 13.2452 33.9122 20.4998 25.9288 22.792C25.3275 22.9646 24.6979 23.0234 24.0723 23.0234H13.7169L16.1417 19.2666H24.1749C26.3078 19.2662 28.5832 15.8409 25.5352 14.1738C24.9217 13.8383 24.2042 13.7646 23.505 13.7646H19.9327L22.2598 10.0361H24.7843C24.8816 10.0361 24.98 10.0307 25.0743 10.0068C26.2133 9.71817 27.4867 8.01693 25.6143 6.77637C25.3011 6.56884 24.9208 6.49515 24.545 6.49512H17.7091L19.5509 2.44629H25.3009Z" fill="url(#paint0_linear_5042_411)"/>
<path d="M121.822 15.233C121.822 15.566 121.799 15.8667 121.753 16.1353H114.569C114.625 16.8443 114.904 17.4136 115.405 17.8433C115.905 18.273 116.52 18.4879 117.248 18.4879C118.295 18.4879 119.034 18.0743 119.466 17.2471H121.566C121.281 18.0635 120.764 18.7349 120.013 19.2613C119.273 19.7769 118.352 20.0348 117.248 20.0348C116.349 20.0348 115.541 19.8468 114.824 19.4708C114.119 19.0841 113.562 18.5469 113.152 17.8594C112.754 17.1612 112.555 16.3555 112.555 15.4424C112.555 14.5293 112.748 13.729 113.135 13.0415C113.533 12.3433 114.085 11.8062 114.79 11.4302C115.507 11.0542 116.326 10.8662 117.248 10.8662C118.135 10.8662 118.926 11.0488 119.62 11.4141C120.314 11.7793 120.855 12.2949 121.241 12.961C121.628 13.6162 121.822 14.3736 121.822 15.233ZM119.791 14.6529C119.779 13.9761 119.523 13.4336 119.023 13.0254C118.522 12.6172 117.902 12.4131 117.163 12.4131C116.491 12.4131 115.917 12.6172 115.439 13.0254C114.961 13.4229 114.677 13.9654 114.586 14.6529H119.791Z" fill="#171717"/>
<path d="M106.893 18.3917H111.16V19.8902H104.641V18.3917L108.924 12.5103H104.641V11.0117H111.16V12.5103L106.893 18.3917Z" fill="#171717"/>
<path d="M92.9609 15.4102C92.9609 14.5186 93.1544 13.729 93.5412 13.0415C93.9394 12.354 94.4741 11.8223 95.1454 11.4463C95.8281 11.0596 96.579 10.8662 97.3981 10.8662C98.1377 10.8662 98.7805 11.0059 99.3266 11.2852C99.8841 11.5537 100.328 11.8921 100.658 12.3003V11.0112H102.62V19.8897H100.658V18.5684C100.328 18.9874 99.8784 19.3365 99.3096 19.6158C98.7407 19.8951 98.0922 20.0348 97.364 20.0348C96.5562 20.0348 95.8167 19.8414 95.1454 19.4547C94.4741 19.0572 93.9394 18.5093 93.5412 17.8111C93.1544 17.1021 92.9609 16.3018 92.9609 15.4102ZM100.658 15.4424C100.658 14.8301 100.521 14.2984 100.248 13.8472C99.9865 13.396 99.6395 13.0523 99.2072 12.8159C98.7748 12.5796 98.3083 12.4614 97.8077 12.4614C97.3071 12.4614 96.8406 12.5796 96.4083 12.8159C95.976 13.0415 95.6233 13.3799 95.3502 13.8311C95.0885 14.2715 94.9577 14.7979 94.9577 15.4102C94.9577 16.0225 95.0885 16.5596 95.3502 17.0215C95.6233 17.4835 95.976 17.838 96.4083 18.085C96.852 18.3214 97.3185 18.4395 97.8077 18.4395C98.3083 18.4395 98.7748 18.3214 99.2072 18.085C99.6395 17.8487 99.9865 17.5049 100.248 17.0538C100.521 16.5918 100.658 16.0547 100.658 15.4424Z" fill="#171717"/>
<path d="M91.0549 7.96582V19.8898H89.1094V7.96582H91.0549Z" fill="#171717"/>
<path d="M84.708 14.1377C85.3451 14.2452 85.8856 14.5621 86.3293 15.0884C86.773 15.6148 86.9949 16.211 86.9949 16.877C86.9949 17.4464 86.8356 17.962 86.517 18.4239C86.2098 18.8751 85.7604 19.235 85.1688 19.5035C84.5772 19.7613 83.8888 19.8902 83.1038 19.8902H78.3594V8.69141H82.8819C83.6897 8.69141 84.3837 8.82031 84.964 9.07813C85.5442 9.33594 85.9823 9.68507 86.2781 10.1255C86.5739 10.5552 86.7218 11.0386 86.7218 11.5757C86.7218 12.2202 86.5398 12.7574 86.1757 13.1871C85.8116 13.6167 85.3224 13.9336 84.708 14.1377ZM80.3049 13.3965H82.7113C83.3484 13.3965 83.8433 13.2622 84.196 12.9937C84.5601 12.7144 84.7421 12.3169 84.7421 11.8013C84.7421 11.2964 84.5601 10.9043 84.196 10.625C83.8433 10.335 83.3484 10.19 82.7113 10.19H80.3049V13.3965ZM82.9331 18.3917C83.593 18.3917 84.1107 18.2413 84.4861 17.9405C84.8616 17.6397 85.0493 17.2208 85.0493 16.6837C85.0493 16.1358 84.8502 15.7007 84.452 15.3785C84.0538 15.0562 83.5247 14.8951 82.8648 14.8951H80.3049V18.3917H82.9331Z" fill="#171717"/>
<path d="M66.1406 15.4102C66.1406 14.5186 66.334 13.7291 66.7209 13.0416C67.1191 12.354 67.6538 11.8223 68.3251 11.4463C69.0077 11.0596 69.7643 10.8662 70.5949 10.8662C71.2093 10.8662 71.8123 10.9951 72.4039 11.253C73.0069 11.5 73.4848 11.833 73.8375 12.252V7.96582H75.8001V19.8898H73.8375V18.5523C73.5189 18.982 73.0752 19.3365 72.5063 19.6158C71.9488 19.8951 71.306 20.0348 70.5778 20.0348C69.7587 20.0348 69.0077 19.8414 68.3251 19.4547C67.6538 19.0572 67.1191 18.5094 66.7209 17.8111C66.334 17.1021 66.1406 16.3018 66.1406 15.4102ZM73.8375 15.4425C73.8375 14.8301 73.7009 14.2984 73.4279 13.8472C73.1662 13.396 72.8192 13.0523 72.3869 12.816C71.9545 12.5796 71.488 12.4615 70.9874 12.4615C70.4868 12.4615 70.0203 12.5796 69.588 12.816C69.1557 13.0416 68.8029 13.3799 68.5299 13.8311C68.2682 14.2715 68.1374 14.7979 68.1374 15.4102C68.1374 16.0225 68.2682 16.5596 68.5299 17.0216C68.8029 17.4835 69.1557 17.838 69.588 18.0851C70.0317 18.3214 70.4982 18.4395 70.9874 18.4395C71.488 18.4395 71.9545 18.3214 72.3869 18.0851C72.8192 17.8487 73.1662 17.505 73.4279 17.0538C73.7009 16.5919 73.8375 16.0548 73.8375 15.4425Z" fill="#171717"/>
<path d="M64.8763 15.233C64.8763 15.566 64.8536 15.8667 64.8081 16.1353H57.6232C57.6801 16.8443 57.9588 17.4136 58.4594 17.8433C58.96 18.273 59.5744 18.4879 60.3026 18.4879C61.3493 18.4879 62.0888 18.0743 62.5212 17.2471H64.6203C64.3359 18.0635 63.8182 18.7349 63.0673 19.2613C62.3278 19.7769 61.4062 20.0348 60.3026 20.0348C59.4038 20.0348 58.596 19.8468 57.8792 19.4708C57.1738 19.0841 56.6163 18.5469 56.2067 17.8594C55.8085 17.1612 55.6094 16.3555 55.6094 15.4424C55.6094 14.5293 55.8028 13.729 56.1896 13.0415C56.5878 12.3433 57.1396 11.8062 57.845 11.4302C58.5618 11.0542 59.381 10.8662 60.3026 10.8662C61.19 10.8662 61.9808 11.0488 62.6748 11.4141C63.3688 11.7793 63.9092 12.2949 64.2961 12.961C64.6829 13.6162 64.8763 14.3736 64.8763 15.233ZM62.8454 14.6529C62.8341 13.9761 62.5781 13.4336 62.0775 13.0254C61.5769 12.6172 60.9568 12.4131 60.2172 12.4131C59.546 12.4131 58.9714 12.6172 58.4936 13.0254C58.0157 13.4229 57.7313 13.9654 57.6403 14.6529H62.8454Z" fill="#171717"/>
<path d="M51.6565 12.3003C51.9409 11.8491 52.3164 11.5 52.7829 11.2529C53.2607 10.9951 53.8239 10.8662 54.4724 10.8662V12.7676H53.9775C53.2152 12.7676 52.6349 12.9502 52.2367 13.3155C51.8499 13.6807 51.6565 14.3145 51.6565 15.2168V19.8897H49.7109V11.0112H51.6565V12.3003Z" fill="#171717"/>
<path d="M35.8594 14.2662C35.8594 13.1705 36.1267 12.1875 36.6615 11.3174C37.2076 10.4473 37.9414 9.77052 38.863 9.28712C39.796 8.79297 40.8143 8.5459 41.9179 8.5459C43.1808 8.5459 44.3014 8.84131 45.2799 9.43214C46.2697 10.0122 46.9865 10.8394 47.4302 11.9136H45.0922C44.785 11.3228 44.3583 10.8823 43.8122 10.5923C43.2661 10.3023 42.6347 10.1572 41.9179 10.1572C41.1328 10.1572 40.4331 10.3237 39.8187 10.6568C39.2043 10.9898 38.7208 11.4678 38.3681 12.0909C38.0268 12.7139 37.8561 13.439 37.8561 14.2662C37.8561 15.0933 38.0268 15.8184 38.3681 16.4415C38.7208 17.0645 39.2043 17.5479 39.8187 17.8917C40.4331 18.2247 41.1328 18.3912 41.9179 18.3912C42.6347 18.3912 43.2661 18.2462 43.8122 17.9561C44.3583 17.6661 44.785 17.2257 45.0922 16.6348H47.4302C46.9865 17.7091 46.2697 18.5362 45.2799 19.1163C44.3014 19.6964 43.1808 19.9864 41.9179 19.9864C40.8029 19.9864 39.7846 19.7447 38.863 19.2613C37.9414 18.7672 37.2076 18.085 36.6615 17.2149C36.1267 16.3448 35.8594 15.3619 35.8594 14.2662Z" fill="#171717"/>
<defs>
<linearGradient id="paint0_linear_5042_411" x1="-1.42742" y1="12.6136" x2="32.2597" y2="12.6136" gradientUnits="userSpaceOnUse">
<stop stop-color="#0040C1"/>
<stop offset="1" stop-color="#6475F6"/>
</linearGradient>
</defs>
</svg>
