<svg width="150" height="150" viewBox="0 0 150 150" fill="none" xmlns="http://www.w3.org/2000/svg">
<path d="M50.207 53.5411H67.5238V115.07H50.207V53.5411Z" fill="#A4C9FF"/>
<path d="M14.8359 53.5409H32.1527V115.07H14.8359V53.5409Z" fill="#A4C9FF"/>
<path d="M85.5781 53.5409H102.895V115.07H85.5781V53.5409Z" fill="#A4C9FF"/>
<path d="M67.5238 116.242H50.207C49.5602 116.242 49.0352 115.717 49.0352 115.07V53.5411C49.0352 52.8942 49.5602 52.3692 50.207 52.3692H67.5238C68.1707 52.3692 68.6957 52.8942 68.6957 53.5411V115.07C68.6957 115.717 68.1707 116.242 67.5238 116.242ZM51.3789 113.898H66.352V54.713H51.3789V113.898Z" fill="#3762CC"/>
<path d="M32.1527 116.242H14.8359C14.1891 116.242 13.6641 115.717 13.6641 115.07V53.5409C13.6641 52.894 14.1891 52.369 14.8359 52.369H32.1527C32.7996 52.369 33.3246 52.894 33.3246 53.5409V115.07C33.3246 115.717 32.7996 116.242 32.1527 116.242ZM16.0078 113.898H30.9809V54.7128H16.0078V113.898Z" fill="#3762CC"/>
<path d="M102.894 116.242H85.5781C84.9313 116.242 84.4062 115.717 84.4062 115.07V53.5409C84.4062 52.894 84.9313 52.369 85.5781 52.369H102.894C103.541 52.369 104.066 52.894 104.066 53.5409V115.07C104.066 115.717 103.541 116.242 102.894 116.242ZM86.75 113.898H101.722V54.7128H86.75V113.898Z" fill="#3762CC"/>
<path d="M113.763 122.807H3.96855C2.74746 122.807 1.75781 121.818 1.75781 120.597V110.281C1.75781 109.06 2.74746 108.07 3.96855 108.07H113.763C114.984 108.07 115.973 109.06 115.973 110.281V120.597C115.973 121.818 114.983 122.807 113.763 122.807Z" fill="#E0EBFC"/>
<path d="M113.763 123.979H3.96855C2.10352 123.979 0.585938 122.461 0.585938 120.596V110.28C0.585938 108.415 2.10352 106.898 3.96855 106.898H113.763C115.628 106.898 117.145 108.416 117.145 110.28V120.596C117.145 122.461 115.628 123.979 113.763 123.979ZM3.96855 109.241C3.39551 109.241 2.92969 109.707 2.92969 110.279V120.595C2.92969 121.168 3.39551 121.634 3.96855 121.634H113.763C114.336 121.634 114.802 121.168 114.802 120.595V110.279C114.802 109.706 114.336 109.241 113.763 109.241H3.96855Z" fill="#3762CC"/>
<path d="M1.75781 47.6462H115.973L60.9721 9.32239C59.7064 8.44055 58.0254 8.44055 56.7598 9.32239L1.75781 47.6462Z" fill="#A4C9FF"/>
<path d="M22.875 40.6921L58.8645 15.6151L94.8533 40.6921H22.875Z" fill="#E0EBFC"/>
<path d="M115.973 48.8179H1.75787C1.24576 48.8179 0.793414 48.4857 0.639898 47.9976C0.486382 47.5089 0.668023 46.9775 1.08814 46.6851L56.0895 8.36184C57.7501 7.20344 59.9819 7.20344 61.6424 8.36184L116.644 46.6851C117.064 46.9775 117.245 47.5089 117.092 47.9976C116.938 48.4857 116.485 48.8179 115.973 48.8179ZM5.4897 46.4741H112.242L60.3018 10.2837C59.4428 9.68547 58.2885 9.68547 57.4295 10.2837L5.4897 46.4741Z" fill="#3762CC"/>
<path d="M94.8534 41.8635H22.8751C22.3629 41.8635 21.9106 41.5313 21.7571 41.0432C21.6036 40.5545 21.7852 40.0231 22.2053 39.7307L58.1942 14.6537C58.5973 14.3731 59.1317 14.3731 59.5342 14.6537L95.5231 39.7307C95.9432 40.0231 96.1243 40.5545 95.9713 41.0432C95.8184 41.5313 95.3655 41.8635 94.8534 41.8635ZM26.6069 39.5198H91.1215L58.8639 17.0432L26.6069 39.5198Z" fill="#3762CC"/>
<path d="M144.422 141.338H62.9699C60.8594 141.338 59.1484 139.627 59.1484 137.517V93.3595C59.1484 91.2489 60.8594 89.538 62.9699 89.538H144.422C146.533 89.538 148.244 91.2489 148.244 93.3595V137.517C148.244 139.627 146.533 141.338 144.422 141.338Z" fill="#E0EBFC"/>
<path d="M93.7344 110.881C93.0875 110.881 92.5625 110.356 92.5625 109.709V101.064C92.5625 100.565 92.1576 100.16 91.6596 100.16H79.5559C79.0578 100.16 78.6523 100.565 78.6523 101.064V109.709C78.6523 110.356 78.1273 110.881 77.4805 110.881C76.8336 110.881 76.3086 110.356 76.3086 109.709V101.064C76.3086 99.273 77.7652 97.8163 79.5559 97.8163H91.6596C93.4496 97.8163 94.9063 99.273 94.9063 101.064V109.709C94.9063 110.357 94.3818 110.881 93.7344 110.881Z" fill="#3762CC"/>
<path d="M101.619 131.151H69.5982C68.4521 131.151 67.5234 130.222 67.5234 129.076V116.454H103.695V129.076C103.694 130.222 102.765 131.151 101.619 131.151Z" fill="#EAA97D"/>
<path d="M103.695 116.453H67.5234V108.326C67.5234 107.18 68.4521 106.251 69.5982 106.251H101.619C102.765 106.251 103.694 107.18 103.694 108.326V116.453H103.695Z" fill="#EAA97D"/>
<path d="M136.461 103.988H113.852C112.234 103.988 110.922 102.677 110.922 101.058C110.922 99.4401 112.234 98.1288 113.852 98.1288H136.461C138.079 98.1288 139.391 99.4401 139.391 101.058C139.391 102.677 138.079 103.988 136.461 103.988Z" fill="#A4C9FF"/>
<path d="M85.6094 120.565C84.9625 120.565 84.4375 120.04 84.4375 119.393V111.352C84.4375 110.706 84.9625 110.181 85.6094 110.181C86.2563 110.181 86.7812 110.706 86.7812 111.352V119.393C86.7812 120.04 86.2568 120.565 85.6094 120.565Z" fill="#3762CC"/>
<path d="M136.461 118H113.852C112.234 118 110.922 116.689 110.922 115.07C110.922 113.452 112.234 112.141 113.852 112.141H136.461C138.079 112.141 139.391 113.452 139.391 115.07C139.391 116.689 138.079 118 136.461 118Z" fill="#A4C9FF"/>
<path d="M136.461 132.012H113.852C112.234 132.012 110.922 130.7 110.922 129.082C110.922 127.464 112.234 126.152 113.852 126.152H136.461C138.079 126.152 139.391 127.464 139.391 129.082C139.391 130.7 138.079 132.012 136.461 132.012Z" fill="#A4C9FF"/>
<path d="M101.619 132.323H69.5982C67.8082 132.323 66.3516 130.866 66.3516 129.076V116.453C66.3516 115.806 66.8766 115.281 67.5234 115.281H103.694C104.341 115.281 104.866 115.806 104.866 116.453V129.076C104.866 130.866 103.409 132.323 101.619 132.323ZM68.6953 117.625V129.076C68.6953 129.574 69.1002 129.979 69.5982 129.979H101.619C102.117 129.979 102.523 129.574 102.523 129.076V117.625H68.6953Z" fill="#3762CC"/>
<path d="M103.694 117.625H67.5234C66.8766 117.625 66.3516 117.1 66.3516 116.453V108.326C66.3516 106.535 67.8082 105.079 69.5982 105.079H101.619C103.41 105.079 104.866 106.535 104.866 108.326V116.453C104.866 117.1 104.341 117.625 103.694 117.625ZM68.6953 115.281H102.522V108.326C102.522 107.828 102.117 107.423 101.619 107.423H69.5977C69.0996 107.423 68.6947 107.828 68.6947 108.326L68.6953 115.281Z" fill="#3762CC"/>
<path d="M144.422 142.511H62.9693C60.216 142.511 57.9766 140.271 57.9766 137.518V93.3607C57.9766 90.6074 60.2166 88.3679 62.9693 88.3679H144.422C147.175 88.3679 149.415 90.6074 149.415 93.3607V137.518C149.415 140.271 147.175 142.511 144.422 142.511ZM62.9693 90.7111C61.5086 90.7111 60.3203 91.8994 60.3203 93.3601V137.518C60.3203 138.978 61.5086 140.167 62.9693 140.167H144.422C145.883 140.167 147.071 138.978 147.071 137.518V93.3601C147.071 91.8994 145.883 90.7111 144.422 90.7111H62.9693Z" fill="#3762CC"/>
<path d="M113.763 60.9102H3.96855C2.74746 60.9102 1.75781 59.9206 1.75781 58.6995V48.3835C1.75781 47.1624 2.74746 46.1727 3.96855 46.1727H113.763C114.984 46.1727 115.973 47.1624 115.973 48.3835V58.6995C115.973 59.9206 114.983 60.9102 113.763 60.9102Z" fill="#E0EBFC"/>
<path d="M113.763 62.0821H3.96855C2.10352 62.0821 0.585938 60.5645 0.585938 58.7001V48.3835C0.585938 46.5178 2.10352 45.0009 3.96855 45.0009H113.763C115.628 45.0009 117.145 46.5184 117.145 48.3835V58.6995C117.145 60.5645 115.628 62.0821 113.763 62.0821ZM3.96855 47.3446C3.39551 47.3446 2.92969 47.811 2.92969 48.3835V58.6995C2.92969 59.2725 3.39551 59.7378 3.96855 59.7378H113.763C114.336 59.7378 114.802 59.2719 114.802 58.6995V48.3835C114.802 47.8104 114.336 47.3446 113.763 47.3446H3.96855Z" fill="#3762CC"/>
<path d="M58.8637 70.5643C68.2657 70.5643 75.8875 62.9424 75.8875 53.5404C75.8875 44.1384 68.2657 36.5166 58.8637 36.5166C49.4617 36.5166 41.8398 44.1384 41.8398 53.5404C41.8398 62.9424 49.4617 70.5643 58.8637 70.5643Z" fill="#EAA97D"/>
<path d="M58.8645 66.5265C51.7043 66.5265 45.8789 60.7011 45.8789 53.541C45.8789 46.3808 51.7043 40.5554 58.8645 40.5554C66.0246 40.5554 71.85 46.3808 71.85 53.541C71.85 60.7011 66.0246 66.5265 58.8645 66.5265Z" fill="#FFEA92"/>
<path d="M60.1709 51.6345H60.1187V47.6137H60.1709C61.2795 47.6137 62.1813 48.5155 62.1813 49.6241C62.1813 50.3161 62.7426 50.8774 63.4346 50.8774C64.1271 50.8774 64.6879 50.3161 64.6879 49.6241C64.6879 47.1333 62.6617 45.1071 60.1709 45.1071H60.1187V45.055C60.1187 44.363 59.5574 43.8016 58.8654 43.8016C58.1734 43.8016 57.6121 44.363 57.6121 45.055V45.1071H57.56C55.0691 45.1071 53.043 47.1333 53.043 49.6241C53.043 52.1149 55.0691 54.1411 57.56 54.1411H57.6121V59.4673H57.56C56.4514 59.4673 55.5496 58.5655 55.5496 57.4569C55.5496 56.7649 54.9883 56.2036 54.2963 56.2036C53.6043 56.2036 53.043 56.7649 53.043 57.4569C53.043 59.9477 55.0691 61.9745 57.56 61.9745H57.6121V62.0266C57.6121 62.7192 58.1734 63.28 58.8654 63.28C59.5574 63.28 60.1187 62.7186 60.1187 62.0266V61.9745H60.1709C62.6617 61.9745 64.6879 59.9477 64.6879 57.4569V56.1514C64.6879 53.6606 62.6617 51.6345 60.1709 51.6345ZM57.6121 51.6345H57.56C56.4514 51.6345 55.5496 50.7327 55.5496 49.6241C55.5496 48.5155 56.4514 47.6137 57.56 47.6137H57.6121V51.6345ZM62.1813 57.4569C62.1813 58.5655 61.2795 59.4673 60.1709 59.4673H60.1187V54.1411H60.1709C61.2795 54.1411 62.1813 55.0428 62.1813 56.1514V57.4569Z" fill="#EAA97D"/>
<path d="M58.8643 71.7372C48.8307 71.7372 40.668 63.5745 40.668 53.5409C40.668 43.5073 48.8307 35.3446 58.8643 35.3446C68.8979 35.3446 77.06 43.5073 77.06 53.5409C77.06 63.5745 68.8973 71.7372 58.8643 71.7372ZM58.8643 37.6884C50.1232 37.6884 43.0117 44.7999 43.0117 53.5409C43.0117 62.2819 50.1232 69.3934 58.8643 69.3934C67.6053 69.3934 74.7162 62.2819 74.7162 53.5409C74.7162 44.7999 67.6053 37.6884 58.8643 37.6884Z" fill="#3762CC"/>
</svg>
