<svg width="167" height="171" viewBox="0 0 167 171" fill="none" xmlns="http://www.w3.org/2000/svg">
<path d="M76.3491 102.475C76.405 102.475 76.4597 102.445 76.4902 102.392C76.5347 102.312 76.508 102.21 76.4305 102.164L52.7869 88.1721C52.6114 88.0681 52.5065 87.8818 52.5058 87.6742C52.5058 87.4663 52.6101 87.2803 52.7855 87.176L76.2702 73.1864C76.3478 73.1401 76.3739 73.0379 76.3287 72.9584C76.2843 72.8779 76.1844 72.8515 76.1062 72.8977L52.6216 86.8872C52.345 87.0522 52.1803 87.3464 52.1803 87.6745C52.181 88.0026 52.3469 88.2965 52.624 88.4607L76.2676 102.453C76.2932 102.468 76.3211 102.475 76.3491 102.475Z" fill="#DBDEE4"/>
<path d="M70.9987 133.755C71.0267 133.755 71.0546 133.747 71.0806 133.732L87.9313 123.694C88.412 123.407 89.0128 123.406 89.4973 123.692L106.463 133.732C106.54 133.778 106.64 133.751 106.686 133.671C106.73 133.591 106.703 133.489 106.626 133.443L89.66 123.403C89.0751 123.057 88.3497 123.059 87.7673 123.406L70.9166 133.443C70.839 133.49 70.813 133.592 70.8581 133.671C70.888 133.725 70.9426 133.755 70.9987 133.755Z" fill="#DBDEE4"/>
<path d="M10.8468 91.1024C10.8748 91.1024 10.9027 91.0953 10.9288 91.0799L33.1781 77.8265C33.4241 77.6798 33.5703 77.4185 33.5703 77.1269C33.5697 76.8356 33.4221 76.5747 33.1761 76.429L10.7768 63.173C10.7011 63.1267 10.6 63.1538 10.5543 63.2339C10.5097 63.3137 10.5365 63.4157 10.614 63.4616L33.0134 76.7177C33.1577 76.8034 33.2442 76.9565 33.2448 77.1275C33.2448 77.2983 33.159 77.4517 33.0139 77.5378L10.7647 90.7912C10.6871 90.8375 10.661 90.9398 10.7062 91.0193C10.7362 91.0728 10.7908 91.1024 10.8468 91.1024Z" fill="#DBDEE4"/>
<path d="M38.8842 155.522C38.9401 155.522 38.9949 155.493 39.0247 155.439C39.0699 155.36 39.0438 155.258 38.9663 155.211L6.93263 136.152C6.85507 136.105 6.75525 136.132 6.71011 136.212C6.66496 136.292 6.69102 136.394 6.76859 136.44L38.8022 155.5C38.8283 155.515 38.8563 155.522 38.8842 155.522Z" fill="#DBDEE4"/>
<path d="M10.8893 136.147C12.0676 136.844 12.0743 137.973 10.9037 138.67C9.7331 139.366 7.82781 139.366 6.64957 138.67C5.47132 137.973 5.46555 136.844 6.63625 136.147C7.80675 135.451 9.71107 135.451 10.8893 136.147Z" fill="white"/>
<path d="M8.78149 139.357C9.58131 139.357 10.3799 139.176 10.9871 138.815C11.6032 138.449 11.942 137.951 11.9414 137.414C11.9408 136.874 11.5962 136.373 10.9719 136.004C9.75054 135.282 7.76934 135.283 6.55555 136.004C5.93945 136.371 5.59989 136.869 5.60058 137.406C5.60126 137.946 5.9458 138.447 6.56954 138.815C7.18045 139.176 7.98156 139.357 8.78149 139.357ZM8.76112 135.791C9.50179 135.791 10.2431 135.959 10.809 136.293C11.3291 136.6 11.6152 136.998 11.6159 137.415C11.6166 137.828 11.3349 138.222 10.823 138.527C9.69951 139.196 7.86335 139.195 6.73222 138.526C6.21278 138.219 5.92662 137.821 5.92603 137.406C5.92545 136.993 6.20709 136.597 6.71947 136.293C7.28093 135.959 8.02103 135.791 8.76112 135.791Z" fill="#DBDEE4"/>
<path d="M8.77719 138.204C8.31788 138.204 7.87325 138.097 7.55751 137.911C7.30396 137.761 7.15834 137.577 7.15815 137.406C7.15795 137.237 7.30065 137.055 7.54969 136.906C7.86288 136.72 8.30562 136.613 8.76435 136.613C9.22326 136.613 9.6675 136.72 9.98304 136.907C10.2369 137.057 10.3825 137.241 10.3828 137.412C10.383 137.582 10.2404 137.763 9.99165 137.911C9.67856 138.098 9.23601 138.204 8.77719 138.204Z" fill="url(#paint0_linear_3210_30617)"/>
<path d="M16.9201 142.99C16.4268 142.99 15.9494 142.875 15.6103 142.675C15.3379 142.514 15.1816 142.316 15.1813 142.132C15.1811 141.951 15.3343 141.755 15.6017 141.596C15.938 141.396 16.4135 141.281 16.9063 141.281C17.3992 141.281 17.8762 141.396 18.2152 141.596C18.4877 141.758 18.6442 141.955 18.6445 142.14C18.6447 142.321 18.4917 142.516 18.2244 142.675C17.8883 142.875 17.4129 142.99 16.9201 142.99Z" fill="#383C43"/>
<path d="M20.4049 170.205C20.8119 170.205 21.2188 170.097 21.5818 169.881L36.4272 161.038C36.5048 160.992 36.5308 160.889 36.4857 160.81C36.4411 160.73 36.342 160.703 36.2632 160.749L21.4178 169.592C20.796 169.963 20.0222 169.965 19.3965 169.595L4.44821 160.749C4.37261 160.703 4.27144 160.73 4.22571 160.81C4.18125 160.89 4.20787 160.992 4.28543 161.038L19.2337 169.884C19.5949 170.098 19.9999 170.205 20.4049 170.205Z" fill="#DBDEE4"/>
<path d="M87.9109 160.124C87.9389 160.124 87.9668 160.116 87.993 160.101L137.021 130.931C137.099 130.884 137.125 130.782 137.079 130.703C137.035 130.622 136.936 130.596 136.857 130.642L87.8289 159.812C87.7513 159.859 87.7253 159.961 87.7705 160.04C87.8002 160.094 87.8549 160.124 87.9109 160.124Z" fill="#DBDEE4"/>
<path d="M91.612 160.203C92.7902 159.507 92.797 158.377 91.6264 157.68C90.4558 156.984 88.5505 156.984 87.3722 157.681C86.194 158.377 86.1882 159.506 87.3588 160.203C88.5295 160.899 90.4337 160.899 91.612 160.203Z" fill="white"/>
<path d="M89.4805 160.886C90.2797 160.886 91.0801 160.706 91.6905 160.345C92.3148 159.976 92.6595 159.475 92.6602 158.935C92.6607 158.398 92.3219 157.901 91.7058 157.534C90.4914 156.812 88.5102 156.811 87.2882 157.534C86.6645 157.903 86.3198 158.403 86.3192 158.943C86.3187 159.48 86.6581 159.978 87.2742 160.345C87.8814 160.706 88.6806 160.886 89.4805 160.886ZM89.5001 157.321C90.2408 157.321 90.9803 157.488 91.5417 157.822C92.0535 158.127 92.3351 158.522 92.3345 158.935C92.3339 159.351 92.0478 159.749 91.5277 160.056C90.3965 160.725 88.5616 160.724 87.4381 160.056C86.9257 159.751 86.644 159.356 86.6447 158.944C86.6454 158.528 86.9314 158.13 87.4509 157.823C88.0168 157.488 88.7588 157.321 89.5001 157.321Z" fill="#DBDEE4"/>
<path d="M89.4959 158.146C89.0365 158.146 88.592 158.254 88.2763 158.44C88.0226 158.59 87.8771 158.774 87.8769 158.945C87.8767 159.114 88.0194 159.296 88.2684 159.444C88.5816 159.631 89.0243 159.738 89.4831 159.738C89.942 159.738 90.3863 159.631 90.7018 159.444C90.9556 159.294 91.1013 159.11 91.1016 158.938C91.1018 158.769 90.9592 158.587 90.7103 158.439C90.3973 158.253 89.9548 158.146 89.4959 158.146Z" fill="url(#paint1_linear_3210_30617)"/>
<path d="M98.3381 152.773C97.8448 152.773 97.3674 152.888 97.0282 153.089C96.7559 153.25 96.5996 153.448 96.5993 153.631C96.5991 153.813 96.7522 154.008 97.0197 154.167C97.356 154.368 97.8315 154.482 98.3243 154.482C98.8172 154.482 99.2942 154.367 99.6332 154.167C99.9057 154.006 100.062 153.808 100.062 153.624C100.063 153.442 99.9096 153.247 99.6424 153.088C99.3062 152.888 98.8309 152.773 98.3381 152.773Z" fill="#383C43"/>
<path d="M72.9909 134.754C74.1691 134.057 74.1759 132.928 73.0053 132.231C71.8347 131.535 69.9294 131.535 68.7511 132.231C67.5729 132.928 67.5671 134.057 68.7377 134.753C69.9083 135.45 71.8126 135.45 72.9909 134.754Z" fill="white"/>
<path d="M70.8588 135.441C71.6586 135.441 72.4591 135.26 73.0694 134.899C73.6938 134.53 74.0378 134.03 74.0391 133.489C74.0396 132.953 73.7002 132.455 73.0834 132.088C71.8703 131.367 69.8885 131.366 68.6665 132.088C68.0428 132.457 67.6982 132.958 67.6976 133.498C67.697 134.035 68.0364 134.532 68.6525 134.899C69.2604 135.26 70.0589 135.441 70.8588 135.441ZM70.8784 131.876C71.6191 131.876 72.3586 132.042 72.92 132.377C73.4325 132.681 73.7141 133.076 73.7134 133.489C73.7128 133.905 73.426 134.303 72.9066 134.61C72.9066 134.61 72.9066 134.61 72.9066 134.611C71.7761 135.279 69.9412 135.279 68.8158 134.611C68.304 134.306 68.0223 133.911 68.0229 133.498C68.0236 133.082 68.3096 132.684 68.8291 132.377C69.3951 132.043 70.1378 131.876 70.8784 131.876Z" fill="#DBDEE4"/>
<path d="M70.8788 132.697C70.4195 132.697 69.9748 132.804 69.6591 132.991C69.4054 133.141 69.2599 133.325 69.2597 133.496C69.2595 133.665 69.4022 133.847 69.6513 133.995C69.9644 134.182 70.4072 134.288 70.8659 134.288C71.3248 134.288 71.7691 134.181 72.0846 133.995C72.3385 133.845 72.4841 133.661 72.4844 133.489C72.4846 133.32 72.342 133.138 72.0931 132.99C71.7801 132.804 71.3375 132.697 70.8788 132.697Z" fill="url(#paint2_linear_3210_30617)"/>
<path d="M79.7169 127.328C79.2236 127.328 78.7462 127.443 78.407 127.644C78.1347 127.805 77.9784 128.002 77.9781 128.186C77.9779 128.368 78.1311 128.563 78.3986 128.722C78.7349 128.922 79.2104 129.037 79.7032 129.037C80.1961 129.037 80.6731 128.922 81.0121 128.722C81.2846 128.561 81.4411 128.363 81.4414 128.179C81.4416 127.997 81.2885 127.802 81.0213 127.643C80.685 127.443 80.2096 127.328 79.7169 127.328Z" fill="#383C43"/>
<path d="M132.168 169.047C132.224 169.047 132.279 169.017 132.309 168.964C132.354 168.884 132.327 168.782 132.25 168.736L115.023 158.549C114.854 158.45 114.754 158.271 114.753 158.073C114.752 157.874 114.853 157.696 115.021 157.595L139.645 142.958C139.724 142.912 139.75 142.81 139.704 142.73C139.66 142.649 139.56 142.623 139.483 142.669L114.858 157.307C114.588 157.467 114.427 157.754 114.427 158.074C114.428 158.393 114.59 158.678 114.86 158.838L132.087 169.025C132.112 169.04 132.14 169.047 132.168 169.047Z" fill="#DBDEE4"/>
<path d="M128.783 169.398C127.605 168.702 127.598 167.573 128.768 166.877C129.939 166.181 131.844 166.182 133.023 166.877C134.201 167.573 134.207 168.702 133.036 169.397C131.865 170.093 129.961 170.093 128.783 169.398Z" fill="white"/>
<path d="M130.913 170.084C131.713 170.084 132.511 169.904 133.119 169.543C133.735 169.177 134.075 168.679 134.074 168.143C134.074 167.603 133.729 167.103 133.105 166.734C131.883 166.013 129.901 166.013 128.688 166.734C128.072 167.101 127.733 167.598 127.733 168.134C127.734 168.674 128.078 169.175 128.702 169.544C129.313 169.904 130.113 170.084 130.913 170.084ZM130.893 166.522C131.634 166.522 132.377 166.689 132.942 167.024C133.462 167.33 133.748 167.728 133.749 168.143C133.749 168.556 133.468 168.95 132.956 169.254C131.832 169.922 129.997 169.922 128.865 169.254C128.346 168.948 128.059 168.55 128.059 168.134C128.058 167.722 128.34 167.327 128.851 167.023C129.413 166.689 130.153 166.522 130.893 166.522Z" fill="#DBDEE4"/>
<path d="M130.893 167.344C131.352 167.344 131.797 167.451 132.112 167.637C132.366 167.787 132.512 167.971 132.512 168.142C132.512 168.311 132.369 168.493 132.12 168.641C131.807 168.827 131.364 168.934 130.906 168.934C130.447 168.934 130.002 168.827 129.687 168.64C129.433 168.491 129.287 168.306 129.287 168.135C129.287 167.966 129.429 167.785 129.678 167.637C129.991 167.45 130.434 167.344 130.893 167.344Z" fill="url(#paint3_linear_3210_30617)"/>
<path d="M122.398 162.217C122.891 162.217 123.369 162.332 123.708 162.532C123.98 162.693 124.136 162.89 124.137 163.074C124.137 163.255 123.984 163.451 123.716 163.61C123.38 163.809 122.904 163.924 122.412 163.924C121.919 163.924 121.442 163.809 121.103 163.609C120.83 163.448 120.674 163.25 120.673 163.067C120.673 162.885 120.826 162.69 121.094 162.531C121.43 162.331 121.905 162.217 122.398 162.217Z" fill="#383C43"/>
<path d="M102.931 97.8052C102.987 97.8052 103.042 97.7756 103.072 97.7221C103.117 97.6423 103.091 97.5403 103.013 97.4941L18.8316 47.4093C18.7541 47.3633 18.6542 47.3897 18.6091 47.4699C18.564 47.5497 18.59 47.6517 18.6676 47.6979L102.849 97.7827C102.875 97.7981 102.903 97.8052 102.931 97.8052Z" fill="#DBDEE4"/>
<g opacity="0.1">
<path d="M96.7909 137.924L152.155 170.675C152.887 171.109 153.79 171.107 154.521 170.672L166.486 163.544C166.953 163.266 166.952 162.574 166.484 162.297L108.661 128.07C107.929 127.637 107.027 127.638 106.296 128.074L96.7849 133.738C95.2166 134.672 95.2199 136.994 96.7909 137.924Z" fill="#171717"/>
</g>
<path d="M106.393 0.510615C107.293 -0.0223815 108.555 0.0549087 109.936 0.875884L161.603 31.4564C162.435 31.9488 163.219 32.6483 163.904 33.4825C164.353 34.0148 164.764 34.6123 165.115 35.2362C165.467 35.8601 165.765 36.5073 166 37.1747C166.373 38.219 166.583 39.2833 166.574 40.2819L166.249 157.234C166.251 158.855 165.697 159.989 164.803 160.518L154.392 166.712C155.293 166.179 155.853 165.041 155.849 163.431L156.179 46.4748C156.187 45.4598 155.974 44.3891 155.588 43.3356C155.353 42.6683 155.048 42.0249 154.696 41.401C154.345 40.777 153.938 40.1859 153.485 39.6472C152.804 38.8194 152.024 38.1263 151.201 37.6366L99.5419 7.06868C98.144 6.24881 96.8989 6.17052 95.9794 6.71456L106.393 0.510615Z" fill="#BEC4CD"/>
<path d="M153.485 39.6472L163.904 33.4824C164.353 34.0147 164.764 34.6122 165.115 35.2361C165.467 35.86 165.765 36.5072 166 37.1746L155.588 43.3355C155.353 42.6682 155.048 42.0248 154.697 41.4009C154.345 40.7768 153.938 40.1858 153.485 39.6472Z" fill="#F1F2F5"/>
<path d="M154.396 166.88C154.424 166.88 154.452 166.872 154.477 166.857C154.482 166.854 154.487 166.852 154.491 166.849L164.884 160.662C165.871 160.077 166.415 158.86 166.415 157.235L166.742 40.2826C166.75 38.676 166.223 36.8536 165.257 35.1518C164.304 33.4751 163.037 32.1105 161.687 31.3087L110.021 0.730279C108.631 -0.09702 107.313 -0.226405 106.31 0.36762L95.8984 6.56624C95.8984 6.56624 95.8978 6.56624 95.8978 6.56654H95.8971C95.8195 6.61281 95.7935 6.7148 95.8379 6.79459C95.8844 6.87439 95.9842 6.90079 96.0604 6.85522C96.955 6.32644 98.1611 6.45181 99.4582 7.21206L151.121 37.7836C152.419 38.5516 153.639 39.8656 154.559 41.4833C155.505 43.1497 156.022 44.9221 156.016 46.474L155.689 163.426C155.694 164.926 155.206 166.041 154.315 166.568H154.314C154.237 166.615 154.21 166.717 154.255 166.796C154.286 166.85 154.34 166.88 154.396 166.88ZM107.7 0.334094C108.359 0.334094 109.093 0.564154 109.857 1.01896L161.525 31.5974C162.826 32.3706 164.051 33.6925 164.976 35.3196C165.913 36.9706 166.424 38.733 166.417 40.2813L166.09 157.234C166.09 158.736 165.604 159.85 164.721 160.373L155.423 165.909C155.813 165.269 156.018 164.424 156.015 163.426L156.342 46.475C156.349 44.8651 155.815 43.0323 154.84 41.3152C153.893 39.6483 152.63 38.2915 151.284 37.4949L99.6205 6.92267C98.7495 6.41246 97.9122 6.17618 97.1581 6.20198L106.473 0.6564C106.837 0.440993 107.251 0.334094 107.7 0.334094Z" fill="#383C43"/>
<path d="M102.781 9.15509C102.809 9.15509 102.837 9.14796 102.862 9.1326L113.294 2.95978C113.371 2.91381 113.398 2.81183 113.353 2.73203C113.308 2.65153 113.208 2.62482 113.131 2.6711L102.699 8.84392C102.622 8.88989 102.595 8.99188 102.64 9.07168C102.67 9.12508 102.725 9.15509 102.781 9.15509Z" fill="#383C43"/>
<path d="M161.148 60.5C161.587 60.2493 161.985 60.2179 162.27 60.3863L163.328 61.0079C163.036 60.8434 162.645 60.8709 162.206 61.1217C161.33 61.6403 160.621 62.9023 160.618 63.9421L160.619 73.0285C160.623 73.5582 160.802 73.9224 161.091 74.0975L160.033 73.4758C159.744 73.301 159.565 72.9367 159.561 72.4068L159.56 63.3205C159.563 62.2808 160.272 61.0186 161.148 60.5Z" fill="#383C43"/>
<path d="M161.093 74.264C161.149 74.264 161.203 74.2344 161.233 74.1812C161.278 74.1017 161.252 74 161.175 73.9534C160.926 73.8026 160.787 73.4731 160.783 73.0268L160.782 63.9416C160.786 62.956 161.462 61.7553 162.289 61.2656C162.658 61.0545 163 61.0135 163.251 61.1539C163.328 61.1978 163.427 61.1695 163.471 61.0893C163.515 61.0095 163.488 60.9085 163.41 60.8629L162.352 60.2413C162.008 60.0376 161.552 60.0783 161.071 60.354C161.07 60.3543 161.069 60.3546 161.069 60.3553C160.151 60.8974 159.402 62.2272 159.399 63.3194L159.4 72.4064C159.403 72.976 159.6 73.4061 159.952 73.6192L161.012 74.2418C161.037 74.2569 161.065 74.264 161.093 74.264ZM162.61 60.7773C162.455 60.8157 162.292 60.8819 162.128 60.9757C161.209 61.5191 160.46 62.8489 160.457 63.9411L160.458 73.0282C160.459 73.2292 160.485 73.413 160.533 73.5759L160.115 73.3309C159.867 73.1806 159.728 72.8516 159.725 72.4052L159.724 63.3202C159.728 62.3349 160.403 61.1345 161.231 60.6448C161.608 60.4288 161.95 60.3877 162.19 60.5307L162.61 60.7773Z" fill="#383C43"/>
<path d="M160.616 63.9436C160.616 62.9014 161.327 61.6394 162.204 61.1235C163.082 60.6075 163.793 61.0336 163.793 62.0759L163.792 71.1646C163.792 72.2068 163.081 73.4688 162.203 73.9848C161.325 74.5008 160.615 74.0747 160.615 73.0324L160.616 63.9436Z" fill="white"/>
<path d="M161.5 74.3715C161.745 74.3715 162.011 74.2904 162.285 74.1294C163.206 73.5879 163.956 72.2579 163.956 71.1644L163.957 62.0758C163.957 61.5081 163.762 61.0797 163.408 60.8695C163.056 60.6594 162.6 60.6995 162.125 60.9786C161.203 61.5202 160.454 62.8503 160.454 63.9434L160.453 73.0323C160.453 73.6002 160.648 74.0287 161.002 74.2388C161.151 74.3276 161.319 74.3715 161.5 74.3715ZM162.909 61.0706C163.033 61.0706 163.147 61.0996 163.245 61.1582C163.494 61.3062 163.632 61.632 163.632 62.0758L163.63 71.1644C163.63 72.1513 162.954 73.3517 162.124 73.8401C161.753 74.0574 161.413 74.0975 161.165 73.9502C160.916 73.802 160.779 73.4762 160.779 73.0324L160.78 63.9434C160.78 62.9569 161.456 61.7569 162.286 61.268C162.509 61.137 162.722 61.0706 162.909 61.0706Z" fill="#383C43"/>
<path d="M161.148 78.3887C161.587 78.138 161.985 78.1065 162.27 78.275L163.328 78.8966C163.036 78.7321 162.645 78.7596 162.206 79.0103C161.33 79.529 160.621 80.791 160.618 81.8308L160.619 90.9171C160.623 91.4469 160.802 91.8111 161.091 91.9861L160.033 91.3645C159.744 91.1896 159.565 90.8254 159.561 90.2955L159.56 81.2092C159.563 80.1694 160.272 78.9072 161.148 78.3887Z" fill="#383C43"/>
<path d="M161.093 92.1544C161.149 92.1544 161.203 92.1248 161.233 92.0713C161.278 91.9921 161.252 91.8904 161.175 91.8438C160.926 91.693 160.787 91.3643 160.783 90.9175L160.782 81.8323C160.786 80.8468 161.462 79.6461 162.289 79.156C162.66 78.9442 163.002 78.9045 163.251 79.0446C163.328 79.0883 163.427 79.0603 163.471 78.9801C163.515 78.9003 163.488 78.7992 163.41 78.7536L162.352 78.1319C162.008 77.9282 161.552 77.969 161.071 78.2446C161.07 78.2449 161.069 78.2452 161.069 78.2459C160.151 78.788 159.402 80.1178 159.399 81.21L159.4 90.297C159.403 90.8666 159.6 91.2967 159.952 91.5098L161.012 92.1321C161.037 92.1472 161.065 92.1544 161.093 92.1544ZM162.61 78.668C162.455 78.7061 162.292 78.7723 162.128 78.8661C161.194 79.4191 160.46 80.7214 160.457 81.8318L160.458 90.9189C160.459 91.1199 160.485 91.3033 160.533 91.4662L160.115 91.2215C159.867 91.0714 159.728 90.7422 159.725 90.2958L159.724 81.2108C159.728 80.2255 160.403 79.0251 161.231 78.5354C161.608 78.3194 161.95 78.2786 162.19 78.4214L162.61 78.668Z" fill="#383C43"/>
<path d="M160.616 81.8303C160.616 80.7881 161.327 79.5262 162.204 79.0102C163.082 78.4942 163.793 78.9203 163.793 79.9626L163.792 89.0513C163.792 90.0935 163.081 91.3555 162.203 91.8715C161.325 92.3875 160.615 91.9614 160.615 90.9191L160.616 81.8303Z" fill="white"/>
<path d="M161.5 92.2581C161.745 92.2581 162.011 92.177 162.285 92.016C163.206 91.4745 163.956 90.1444 163.956 89.051L163.957 79.9624C163.957 79.3944 163.762 78.9659 163.408 78.7558C163.057 78.5466 162.599 78.5857 162.125 78.8653C161.203 79.4069 160.454 80.7369 160.454 81.8301L160.453 90.9191C160.453 91.4867 160.648 91.9151 161.002 92.1256C161.151 92.214 161.32 92.2581 161.5 92.2581ZM162.909 78.9571C163.033 78.9571 163.147 78.9861 163.245 79.0444C163.494 79.1924 163.632 79.5185 163.632 79.9623L163.63 89.0509C163.63 90.0378 162.954 91.2382 162.124 91.7266C161.752 91.9442 161.413 91.9831 161.165 91.8367C160.916 91.6885 160.779 91.3627 160.779 90.9189L160.78 81.8298C160.78 80.8432 161.456 79.6433 162.286 79.1544C162.509 79.0232 162.722 78.9571 162.909 78.9571Z" fill="#383C43"/>
<path d="M159.489 111.84C159.489 110.71 160.26 109.342 161.211 108.783C162.163 108.223 162.934 108.685 162.934 109.815L162.931 131.761C162.931 132.891 162.16 134.259 161.209 134.819C160.257 135.378 159.486 134.916 159.486 133.786L159.489 111.84Z" fill="#F1F2F5"/>
<path d="M160.456 111.294C160.456 111.784 160.794 111.98 161.206 111.737C161.625 111.491 161.957 110.901 161.957 110.411C161.957 109.908 161.625 109.709 161.206 109.955C160.794 110.197 160.456 110.791 160.456 111.294Z" fill="#383C43"/>
<path d="M150.844 166.352C153.603 167.986 155.844 166.677 155.853 163.427L156.18 46.4757C156.189 43.2258 153.963 39.2738 151.203 37.6407L99.539 7.06631C96.7794 5.43319 94.5388 6.74189 94.5297 9.99187L94.2029 126.943C94.1938 130.193 96.4198 134.145 99.1793 135.778L150.844 166.352Z" fill="#383C43"/>
<path d="M153.087 167.225C153.591 167.225 154.058 167.105 154.471 166.861C155.463 166.276 156.013 165.056 156.017 163.428L156.344 46.4768C156.353 43.1814 154.084 39.1532 151.286 37.4973L99.6213 6.92274C98.2289 6.09905 96.9114 5.97067 95.9139 6.55907C94.922 7.14457 94.3727 8.36384 94.3682 9.99234L94.0414 126.943C94.0319 130.238 96.3004 134.267 99.0992 135.923L150.763 166.498C151.58 166.981 152.371 167.225 153.087 167.225ZM97.298 6.52926C97.9567 6.52926 98.6923 6.75832 99.4584 7.21152L151.123 37.786C153.831 39.3887 156.027 43.2871 156.018 46.4762L155.691 163.427C155.687 164.932 155.196 166.048 154.308 166.572C153.415 167.099 152.213 166.97 150.926 166.209L99.2619 135.635C96.5534 134.031 94.3574 130.133 94.3669 126.945L94.6937 9.99324C94.6976 8.4889 95.189 7.37192 96.0766 6.84866C96.4384 6.63516 96.8504 6.52926 97.298 6.52926Z" fill="#383C43"/>
<path d="M96.4758 7.55866C95.8584 7.92392 95.4991 8.81295 95.4963 9.99267L95.1694 126.945C95.1651 128.346 95.6332 129.954 96.4905 131.476C97.3446 132.992 98.4722 134.217 99.6644 134.925L151.328 165.498C152.341 166.099 153.284 166.232 153.912 165.861C154.53 165.495 154.889 164.606 154.892 163.426L155.219 46.4744C155.223 45.0735 154.755 43.4657 153.898 41.9437C153.044 40.4274 151.916 39.2023 150.724 38.4941L99.0603 7.92172C98.0471 7.32046 97.1043 7.18676 96.4758 7.55866Z" fill="white"/>
<path d="M153.093 166.234C153.431 166.234 153.737 166.158 153.995 166.005C154.667 165.608 155.053 164.668 155.056 163.427L155.383 46.4748C155.387 45.0445 154.91 43.4055 154.041 41.8602C153.171 40.3187 152.023 39.0724 150.806 38.35L99.1434 7.77748C98.0772 7.14441 97.0752 7.01211 96.3955 7.41452C95.7241 7.81171 95.3375 8.75103 95.335 9.99248L95.0082 126.945C95.0037 128.375 95.4806 130.014 96.3504 131.559C97.2188 133.1 98.3671 134.347 99.584 135.069L151.247 165.642C151.908 166.034 152.543 166.234 153.093 166.234ZM97.301 7.51751C97.7893 7.51751 98.3685 7.7032 98.9808 8.06616L150.644 38.6387C151.812 39.3321 152.918 40.5353 153.758 42.027C154.6 43.5219 155.062 45.1012 155.057 46.4738L154.73 163.426C154.728 164.545 154.401 165.38 153.833 165.716C153.256 166.056 152.374 165.924 151.41 165.353L99.7469 134.781C98.5789 134.087 97.4733 132.884 96.6327 131.392C95.7909 129.897 95.3293 128.318 95.3338 126.945L95.6606 9.99308C95.6632 8.87389 95.99 8.03936 96.5584 7.7031C96.7688 7.57904 97.0199 7.51751 97.301 7.51751Z" fill="#383C43"/>
<path d="M136.996 36.5339C136.229 36.0858 116.763 24.6378 115.86 24.1069C114.417 23.2573 113.243 21.1736 113.242 19.4665L113.245 16.3555C114.148 16.8864 138.584 31.257 139.613 31.8621L139.613 34.971C139.612 36.6802 138.439 37.3834 136.996 36.5339Z" fill="#383C43"/>
<path d="M138.157 37.0593C138.435 37.0593 138.695 36.9919 138.924 36.8556C139.473 36.5298 139.777 35.8596 139.777 34.9678V31.8587C139.777 31.7991 139.746 31.7437 139.695 31.7141L129.446 25.6866C122.257 21.459 113.85 16.5149 113.327 16.2076C113.277 16.1783 113.214 16.178 113.165 16.2079C113.114 16.2375 113.083 16.2926 113.083 16.3519L113.08 19.463C113.082 21.2264 114.294 23.3729 115.78 24.2484L117.925 25.5098C123.42 28.7407 136.285 36.3061 136.916 36.6753C137.35 36.9305 137.772 37.0593 138.157 37.0593ZM139.452 31.9555V34.9678C139.451 35.7351 139.206 36.303 138.761 36.5666C138.319 36.8288 137.721 36.764 137.079 36.3857C137.078 36.3857 137.078 36.3854 137.078 36.3854C136.453 36.0198 123.583 28.4518 118.087 25.2202L115.942 23.9588C114.545 23.1362 113.407 21.1192 113.405 19.4627L113.408 16.6397C114.93 17.5345 122.629 22.0621 129.284 25.9757L139.452 31.9555Z" fill="#383C43"/>
<path d="M119.385 23.782C119.086 23.251 118.921 22.6867 118.921 22.194C118.921 21.7504 119.052 21.4278 119.291 21.2859C119.527 21.1466 119.858 21.1883 120.225 21.4036L136.603 31.0332C137.019 31.2779 137.413 31.7059 137.713 32.2392C138.014 32.7735 138.18 33.3412 138.18 33.8372C138.18 34.2757 138.049 34.5947 137.812 34.7351C137.575 34.8756 137.242 34.8336 136.874 34.6171L120.496 24.9879C120.08 24.7428 119.685 24.3148 119.385 23.782Z" fill="white"/>
<path d="M113.323 135.151C113.323 135.645 113.493 136.206 113.792 136.739C114.092 137.273 114.482 137.7 114.899 137.947L131.28 147.576C131.651 147.79 131.983 147.83 132.217 147.69C132.452 147.55 132.588 147.236 132.582 146.796C132.588 146.295 132.419 145.728 132.12 145.194C131.82 144.66 131.423 144.233 131.006 143.993L114.632 134.364C114.261 134.144 113.935 134.104 113.694 134.244C113.46 134.384 113.323 134.704 113.323 135.151Z" fill="#BEC4CD"/>
<path d="M115.139 21.2869C114.84 20.7559 114.675 20.1921 114.675 19.6994C114.675 19.2559 114.806 18.9338 115.045 18.7921C115.28 18.652 115.613 18.6944 115.981 18.9106C116.397 19.1553 116.792 19.5833 117.092 20.1166C117.393 20.6508 117.559 21.2184 117.559 21.7145C117.558 22.1525 117.428 22.4714 117.191 22.6124C116.954 22.7529 116.621 22.711 116.252 22.4944C115.834 22.2489 115.439 21.8202 115.139 21.2869Z" fill="white"/>
<path d="M115.534 21.0509C115.356 20.7352 115.258 20.4 115.258 20.1072C115.258 19.8435 115.336 19.652 115.478 19.5677C115.618 19.4845 115.816 19.5097 116.035 19.6382C116.282 19.7836 116.517 20.0381 116.695 20.3552C116.874 20.6728 116.973 21.0102 116.973 21.3051C116.973 21.5655 116.895 21.7551 116.754 21.8389C116.613 21.9225 116.415 21.8976 116.196 21.7688C115.948 21.6228 115.713 21.368 115.534 21.0509Z" fill="url(#paint4_linear_3210_30617)"/>
<path d="M113.33 11.5977C112.271 10.9704 112.279 9.95221 113.332 9.32516C114.399 8.68978 116.1 8.68988 117.16 9.31713C118.247 9.96064 118.253 10.9704 117.186 11.6059C116.133 12.233 114.418 12.2412 113.33 11.5977Z" fill="#383C43"/>
<path d="M156.16 54.2338C156.188 54.2338 156.215 54.2267 156.241 54.2113L166.641 48.0574C166.719 48.0114 166.746 47.9094 166.701 47.8296C166.655 47.7495 166.555 47.7224 166.479 47.7687L156.078 53.9226C156.001 53.9686 155.974 54.0706 156.018 54.1504C156.049 54.2038 156.104 54.2338 156.16 54.2338Z" fill="#383C43"/>
<path d="M155.871 156.73C155.899 156.73 155.927 156.723 155.953 156.707L166.352 150.554C166.43 150.508 166.457 150.406 166.412 150.326C166.367 150.245 166.266 150.219 166.19 150.265L155.79 156.419C155.712 156.464 155.685 156.566 155.73 156.646C155.76 156.7 155.815 156.73 155.871 156.73Z" fill="#383C43"/>
<path d="M151.075 54.4079C151.3 54.4079 151.518 54.2883 151.639 54.0742C151.819 53.7549 151.712 53.347 151.401 53.1625L134.281 43.0329C133.971 42.8488 133.572 42.9576 133.392 43.2773C133.212 43.5966 133.319 44.0045 133.63 44.189L150.75 54.3186C150.852 54.3793 150.964 54.4079 151.075 54.4079Z" fill="#BEC4CD"/>
<path d="M151.075 60.6968C151.3 60.6968 151.518 60.5773 151.639 60.3632C151.819 60.0439 151.712 59.6359 151.401 59.4514L137.483 51.2164C137.173 51.0323 136.773 51.1414 136.593 51.4608C136.413 51.7801 136.52 52.188 136.832 52.3725L150.75 60.6076C150.852 60.6682 150.964 60.6968 151.075 60.6968Z" fill="#BEC4CD"/>
<path d="M125.214 85.0733C120.092 82.0427 115.541 82.2424 112.676 85.0275C115.527 91.1953 120.057 96.7688 125.173 99.7962C130.289 102.824 134.84 102.624 137.711 99.8422C134.871 93.6809 130.335 88.1041 125.214 85.0733Z" fill="url(#paint5_linear_3210_30617)"/>
<path d="M132.168 102.175C133.691 102.175 135.1 101.811 136.342 101.078C139.347 99.3056 141.01 95.5904 141.023 90.6167C141.051 80.3867 134.008 67.8824 125.322 62.7427C121.07 60.2257 117.062 59.8217 114.036 61.6065C111.032 63.3784 109.37 67.0942 109.357 72.0695C109.328 82.299 116.371 94.8033 125.057 99.9433C127.563 101.426 129.983 102.175 132.168 102.175ZM118.21 60.844C120.337 60.844 122.704 61.578 125.159 63.0313C133.755 68.1181 140.726 80.4921 140.698 90.6159C140.684 95.4653 139.08 99.078 136.18 100.789C133.261 102.511 129.367 102.109 125.22 99.6544C116.624 94.5672 109.653 82.1932 109.682 72.07C109.695 67.2188 111.299 63.6053 114.198 61.8954C115.39 61.193 116.743 60.844 118.21 60.844Z" fill="#383C43"/>
<path d="M124.426 68.8291C121.657 67.1903 119.408 68.5101 119.399 71.7718C119.39 75.0267 121.624 78.9989 124.393 80.6376C127.163 82.2764 129.417 80.9599 129.426 77.705C129.435 74.4432 127.195 70.4678 124.426 68.8291Z" fill="#DBDEE4"/>
<path d="M103.666 59.7331C103.755 59.7331 103.828 59.6588 103.828 59.5665L103.869 44.9883L116.248 52.314C116.325 52.3599 116.425 52.3328 116.471 52.253C116.515 52.1732 116.488 52.0713 116.411 52.0253L103.788 44.5556C103.738 44.5256 103.676 44.526 103.626 44.5553C103.575 44.5849 103.544 44.64 103.544 44.6996L103.503 59.5659C103.503 59.6578 103.575 59.7328 103.665 59.7331C103.666 59.7331 103.666 59.7331 103.666 59.7331Z" fill="#383C43"/>
<path d="M116.193 103.109C116.249 103.109 116.303 103.079 116.334 103.026C116.378 102.946 116.352 102.844 116.274 102.798L103.728 95.3741L103.769 80.5988C103.769 80.5069 103.697 80.4319 103.607 80.4316C103.606 80.4316 103.606 80.4316 103.606 80.4316C103.517 80.4316 103.444 80.5059 103.444 80.5982L103.402 95.47C103.402 95.5296 103.434 95.585 103.484 95.6146L116.111 103.087C116.137 103.102 116.165 103.109 116.193 103.109Z" fill="#383C43"/>
<path d="M146.679 121.151C146.707 121.151 146.735 121.143 146.76 121.129C146.81 121.099 146.841 121.044 146.841 120.984L146.883 106.107C146.883 106.015 146.81 105.94 146.721 105.939C146.72 105.939 146.72 105.939 146.72 105.939C146.63 105.939 146.557 106.014 146.557 106.106L146.517 120.696L134.128 113.364C134.052 113.318 133.952 113.345 133.905 113.425C133.861 113.505 133.888 113.607 133.965 113.653L146.597 121.128C146.623 121.143 146.651 121.151 146.679 121.151Z" fill="#383C43"/>
<path d="M146.773 85.2481C146.863 85.2481 146.936 85.1738 146.936 85.0815L146.977 70.2097C146.977 70.1501 146.945 70.0947 146.895 70.0651L134.268 62.5929C134.192 62.5466 134.092 62.5736 134.046 62.6538C134.001 62.7336 134.028 62.8356 134.105 62.8816L146.651 70.3056L146.61 85.0809C146.61 85.1728 146.683 85.2478 146.772 85.2481C146.773 85.2481 146.773 85.2481 146.773 85.2481Z" fill="#383C43"/>
<g opacity="0.1">
<path d="M66.0225 44.5927C66.5474 44.9033 66.5501 45.4103 66.0287 45.7209L4.48459 82.376C3.96319 82.6865 3.11752 82.6814 2.59279 82.3709L0.651161 81.222C0.126534 80.9116 0.115082 80.4095 0.636482 80.0989L62.1806 43.4438C62.702 43.1333 63.5563 43.1334 64.0809 43.4438L66.0225 44.5927Z" fill="#171717"/>
</g>
<path d="M0.159904 40.485L0.263695 76.0118C0.263695 77.007 0.59951 77.7078 1.15529 78.0332L3.93966 79.6978C3.39005 79.3661 3.05423 78.6715 3.05423 77.6764L2.95649 42.1495C2.95649 41.8366 2.98705 41.5174 3.05423 41.192C3.2741 40.0218 3.87854 38.8016 4.67846 37.8752C5.08146 37.4058 5.52726 37.0117 6.00351 36.7301L64.2381 2.26078C65.0929 1.76642 65.8623 1.72266 66.418 2.04798L63.6274 0.383441C63.0718 0.0580224 62.3024 0.101888 61.4475 0.608787L3.21297 35.0656C2.73662 35.3471 2.28487 35.7476 1.88187 36.217C1.08195 37.1494 0.471313 38.3697 0.251457 39.54C0.190346 39.8592 0.159904 40.1783 0.159904 40.485Z" fill="#DBDEE4"/>
<path d="M3.94221 79.8669C3.99813 79.8669 4.05278 79.8373 4.08275 79.7841C4.1279 79.7046 4.10185 79.6026 4.02429 79.5561V79.5558C3.50289 79.2436 3.21612 78.578 3.21612 77.6816L3.11692 42.1535C3.11124 40.2142 4.44324 37.8467 6.08549 36.8761L64.3218 2.41057C65.0918 1.95928 65.8077 1.88209 66.338 2.19546C66.4143 2.24143 66.5153 2.21503 66.5599 2.13483C66.605 2.05504 66.579 1.95305 66.5014 1.90678L63.7089 0.242445C63.0725 -0.133864 62.2409 -0.0556718 61.3666 0.463674L3.13033 34.9227C1.39779 35.9464 -0.00666809 38.4443 -0.000991821 40.4898L0.0982132 76.0175C0.0982132 77.0462 0.445396 77.8144 1.07609 78.1807L3.85896 79.8431C3.85896 79.8434 3.85956 79.8437 3.86024 79.8441C3.8863 79.8597 3.9142 79.8669 3.94221 79.8669ZM65.4675 1.67672C65.0581 1.70543 64.6149 1.85428 64.1597 2.12148L5.92274 36.587C4.19019 37.6107 2.78571 40.1086 2.79139 42.1541L2.89059 77.6818C2.89059 78.2068 2.98148 78.6649 3.1557 79.037L1.23815 77.8917C0.712341 77.5861 0.423744 76.9208 0.423744 76.0172L0.324539 40.4891C0.318863 38.5497 1.65086 36.1823 3.29311 35.2116L61.5294 0.752256C62.2994 0.294742 63.016 0.217552 63.5456 0.531026L65.4675 1.67672Z" fill="#383C43"/>
<path d="M6.00664 36.7284C4.3117 37.7313 2.94838 40.1606 2.95386 42.1521L3.05218 77.6819C3.05766 79.6779 4.43001 80.484 6.12485 79.481L64.3613 45.022C66.0523 44.0214 67.4195 41.5942 67.414 39.5982L67.3157 4.06845C67.3102 2.07699 65.934 1.26866 64.243 2.26921L6.00664 36.7284Z" fill="white"/>
<path d="M4.75067 80.0788C5.20078 80.0788 5.6967 79.926 6.20791 79.6236L64.4442 45.1646C66.178 44.1389 67.5838 41.6408 67.5781 39.5959L67.4802 4.06646C67.477 3.04303 67.1286 2.27445 66.4979 1.90266C65.864 1.52926 65.0362 1.60685 64.1633 2.12329L5.92695 36.5823C4.19313 37.608 2.78728 40.1058 2.79237 42.1507L2.89091 77.6804C2.89404 78.7062 3.24248 79.4754 3.87189 79.8468C4.13456 80.0019 4.4315 80.0788 4.75067 80.0788ZM65.6153 2.00404C65.8792 2.00404 66.122 2.06627 66.335 2.19174C66.8608 2.5019 67.152 3.1679 67.1545 4.06717L67.2525 39.5969C67.2582 41.5352 65.9249 43.9034 64.2814 44.8759L6.04506 79.3349C5.27579 79.7897 4.56174 79.8689 4.03398 79.5577C3.50945 79.2482 3.21889 78.5809 3.21634 77.6797L3.11781 42.15C3.11272 40.2117 4.44599 37.8435 6.08951 36.8709L64.3258 2.41197C64.7844 2.14085 65.2231 2.00404 65.6153 2.00404Z" fill="#383C43"/>
<path d="M50.0471 34.9116C53.184 33.0554 55.9907 33.0955 57.832 34.6752C56.0055 38.4156 53.2081 41.7716 50.0712 43.6277C46.9343 45.4838 44.1276 45.4438 42.2863 43.8737C44.1129 40.1236 46.9102 36.7678 50.0471 34.9116Z" fill="url(#paint6_linear_3210_30617)"/>
<path d="M50.0142 24.8697C51.9626 23.7168 53.5483 24.6384 53.5547 26.9376C53.561 29.232 51.9855 32.0287 50.0372 33.1817C48.0889 34.3345 46.503 33.4083 46.4967 31.1139C46.4903 28.8147 48.0659 26.0225 50.0142 24.8697Z" fill="#DBDEE4"/>
<path d="M45.5609 45.2047C46.9673 45.2047 48.5307 44.7261 50.1469 43.7714C53.2007 41.9604 56.0522 38.6715 57.9699 34.7479C59.4258 31.7764 60.2244 28.6327 60.2187 25.8962C60.2098 22.6901 59.136 20.2945 57.1955 19.1505C55.241 17.9981 52.6565 18.2567 49.9169 19.8797C44.3479 23.1745 39.8324 31.1932 39.8508 37.7547C39.8572 40.5109 40.6838 42.7291 42.1791 44.0008C43.12 44.804 44.2746 45.2047 45.5609 45.2047ZM59.8931 25.8968C59.8988 28.5822 59.1124 31.6724 57.6786 34.5984C55.789 38.4656 52.9844 41.7034 49.9842 43.4824C47.0169 45.2357 44.2467 45.3322 42.3869 43.7444C40.9672 42.5369 40.182 40.4095 40.1763 37.7541C40.1579 31.2988 44.6008 23.4102 50.0795 20.1684C52.7143 18.6087 55.1832 18.3496 57.0333 19.4396C58.8688 20.5218 59.8842 22.815 59.8931 25.8968Z" fill="#383C43"/>
<path d="M33.197 48.1811C34.2135 47.5796 35.0358 48.0601 35.0391 49.257C35.0424 50.4539 34.2254 51.9139 33.209 52.5152L10.3135 66.0823C9.29717 66.6837 8.46659 66.1987 8.46326 65.0017C8.45993 63.8048 9.28512 62.3495 10.3016 61.7481L33.197 48.1811Z" fill="white"/>
<path d="M9.49325 66.51C9.77559 66.51 10.0839 66.4156 10.4005 66.2282L33.2957 52.6612C34.3537 52.0357 35.2107 50.5088 35.207 49.258C35.2051 48.6194 34.9851 48.1381 34.5878 47.9035C34.1878 47.6679 33.6665 47.7152 33.121 48.0384L10.2258 61.6052C9.1634 62.2338 8.30246 63.7583 8.30628 65.004C8.30814 65.6426 8.52948 66.1245 8.92934 66.3608C9.09837 66.4604 9.28915 66.51 9.49325 66.51ZM34.0282 48.0896C34.1744 48.0896 34.3086 48.1238 34.4256 48.1929C34.718 48.3655 34.8802 48.7442 34.8815 49.259C34.8853 50.4033 34.1008 51.7998 33.133 52.3727L10.2377 65.9395C9.79643 66.2005 9.38952 66.2467 9.092 66.0715C8.79634 65.8971 8.63299 65.5179 8.63171 65.0031C8.62789 63.864 9.41626 62.4694 10.3884 61.894L33.2837 48.3272C33.5501 48.1694 33.8037 48.0896 34.0282 48.0896Z" fill="#383C43"/>
<path d="M33.197 39.5288C34.2135 38.9273 35.0358 39.4078 35.0391 40.6047C35.0424 41.8016 34.2254 43.2615 33.209 43.8629L10.3135 57.43C9.29717 58.0315 8.46659 57.5464 8.46326 56.3495C8.45993 55.1526 9.28512 53.6972 10.3016 53.0959L33.197 39.5288Z" fill="#DBDEE4"/>
<path d="M33.197 30.8764C34.2135 30.275 35.0358 30.7555 35.0391 31.9523C35.0424 33.1492 34.2254 34.6092 33.209 35.2105L10.3135 48.7776C9.29717 49.379 8.46659 48.894 8.46326 47.697C8.45993 46.5001 9.28512 45.0448 10.3016 44.4433L33.197 30.8764Z" fill="#DBDEE4"/>
<g opacity="0.9">
<path d="M115.539 111.7C114.521 111.098 113.691 111.583 113.688 112.782C113.684 113.981 114.509 115.445 115.527 116.048L140.609 130.89C141.628 131.493 142.458 131.008 142.461 129.809C142.464 128.609 141.64 127.145 140.621 126.543L115.539 111.7Z" fill="url(#paint7_linear_3210_30617)"/>
</g>
<path d="M141.442 131.313C141.646 131.313 141.836 131.264 142.005 131.164C142.405 130.928 142.627 130.445 142.629 129.805C142.632 128.553 141.771 127.023 140.708 126.394L105.371 105.484C104.823 105.16 104.301 105.113 103.898 105.35C103.498 105.587 103.277 106.069 103.275 106.709C103.271 107.961 104.133 109.491 105.196 110.12L140.533 131.03C140.85 131.218 141.16 131.313 141.442 131.313ZM105.208 105.772L140.545 126.683C141.518 127.259 142.307 128.659 142.303 129.804C142.302 130.32 142.138 130.7 141.842 130.874C141.544 131.05 141.137 131.003 140.695 130.741L105.359 109.831C104.386 109.255 103.597 107.855 103.6 106.71C103.602 106.194 103.765 105.814 104.061 105.64C104.359 105.464 104.766 105.511 105.208 105.772Z" fill="#1BA5DE"/>
<g opacity="0.1">
<path d="M28.0795 155.464C22.0802 159.016 22.0486 164.776 28.0116 168.33C33.9745 171.883 43.671 171.881 49.6703 168.33C55.6722 164.777 55.7094 159.016 49.7464 155.463C43.7834 151.91 34.0814 151.911 28.0795 155.464Z" fill="#383C43"/>
</g>
<path d="M54.207 159.405C54.212 161.748 52.7051 164.097 49.6811 165.883C47.3408 167.269 44.4416 168.113 41.4177 168.415C39.741 168.589 38.0244 168.589 36.3478 168.425C33.2939 168.129 30.3697 167.279 28.0244 165.883C25.0603 164.117 23.5783 161.81 23.5733 159.497L23.5634 153.803C23.5683 156.12 25.0504 158.428 28.0144 160.193C30.3647 161.595 33.2939 162.444 36.3478 162.736C38.0244 162.9 39.741 162.9 41.4177 162.726C44.4367 162.424 47.3359 161.574 49.6711 160.193C52.6901 158.412 54.1971 156.069 54.1971 153.721L54.207 159.405Z" fill="#BEC4CD"/>
<path d="M41.4141 162.723V168.412C39.7374 168.586 38.0208 168.586 36.3442 168.422V162.733C38.0208 162.897 39.7374 162.897 41.4141 162.723Z" fill="#F1F2F5"/>
<path d="M38.8436 168.708C42.7951 168.708 46.751 167.815 49.7686 166.028C52.7466 164.265 54.3826 161.912 54.375 159.401L54.3648 153.725C54.3648 153.721 54.3648 153.716 54.3648 153.711C54.3648 153.619 54.2916 153.545 54.202 153.545C54.202 153.545 54.202 153.545 54.2014 153.545C54.1118 153.545 54.0393 153.62 54.0393 153.712V153.712C54.0393 153.712 54.0393 153.712 54.0393 153.713V153.724C54.0412 156.106 52.4631 158.351 49.5956 160.049C43.6496 163.568 34.007 163.569 28.1004 160.049C25.2882 158.373 23.7356 156.155 23.7292 153.804C23.7292 153.711 23.6561 153.637 23.5665 153.637C23.5665 153.637 23.5665 153.637 23.5658 153.637C23.4762 153.637 23.4036 153.712 23.4036 153.804L23.4138 159.495C23.4208 161.969 25.0307 164.29 27.9464 166.028C30.9456 167.814 34.892 168.708 38.8436 168.708ZM54.0424 155.63L54.0493 159.402C54.0563 161.788 52.4783 164.039 49.6057 165.739C43.6596 169.259 34.0171 169.259 28.1105 165.739C25.2983 164.063 23.7457 161.846 23.7393 159.494L23.7323 155.707C24.342 157.453 25.7827 159.054 27.9362 160.338C33.9343 163.911 43.7232 163.911 49.7582 160.338C51.9621 159.033 53.4308 157.405 54.0424 155.63Z" fill="#383C43"/>
<path d="M28.0834 147.33C22.0842 150.881 22.0525 156.641 28.0155 160.195C33.9784 163.748 43.6749 163.746 49.6742 160.195C55.6761 156.642 55.7133 150.881 49.7504 147.328C43.7873 143.775 34.0853 143.777 28.0834 147.33Z" fill="white"/>
<path d="M38.8279 163.017C42.7795 163.017 46.7354 162.124 49.753 160.338C52.7202 158.581 54.3561 156.236 54.3594 153.734C54.3632 151.252 52.7539 148.925 49.8299 147.182C43.8318 143.608 34.0385 143.608 27.9996 147.184C25.0361 148.938 23.4021 151.281 23.399 153.781C23.3952 156.265 25.005 158.594 27.9309 160.338C30.93 162.124 34.8764 163.017 38.8279 163.017ZM38.9316 144.831C42.8252 144.831 46.7125 145.711 49.6658 147.471C52.4862 149.151 54.037 151.375 54.0337 153.734C54.0306 156.112 52.4525 158.354 49.5901 160.049C43.644 163.568 34.0015 163.569 28.0949 160.049C25.2732 158.368 23.7206 156.142 23.7244 153.782C23.7275 151.406 25.3037 149.165 28.1623 147.473C31.1373 145.711 35.0373 144.831 38.9316 144.831Z" fill="#383C43"/>
<path d="M28.0834 147.33C22.0842 150.881 22.0525 156.641 28.0155 160.195C33.9784 163.748 43.6749 163.746 49.6742 160.195C55.6761 156.642 55.7133 150.881 49.7504 147.328C43.7873 143.775 34.0853 143.777 28.0834 147.33Z" fill="white"/>
<path d="M38.8279 163.017C42.7795 163.017 46.7354 162.124 49.753 160.338C52.7202 158.581 54.3561 156.236 54.3594 153.734C54.3632 151.252 52.7539 148.925 49.8299 147.182C43.8318 143.608 34.0385 143.608 27.9996 147.184C25.0361 148.938 23.4021 151.281 23.399 153.781C23.3952 156.265 25.005 158.594 27.9309 160.338C30.93 162.124 34.8764 163.017 38.8279 163.017ZM38.9316 144.831C42.8252 144.831 46.7125 145.711 49.6658 147.471C52.4862 149.151 54.037 151.375 54.0337 153.734C54.0306 156.112 52.4525 158.354 49.5901 160.049C43.644 163.568 34.0015 163.569 28.0949 160.049C25.2732 158.368 23.7206 156.142 23.7244 153.782C23.7275 151.406 25.3037 149.165 28.1623 147.473C31.1373 145.711 35.0373 144.831 38.9316 144.831Z" fill="#383C43"/>
<path d="M28.0834 147.33C22.0842 150.881 22.0525 156.641 28.0155 160.195C33.9784 163.748 43.6749 163.746 49.6742 160.195C55.6761 156.642 55.7133 150.881 49.7504 147.328C43.7873 143.775 34.0853 143.777 28.0834 147.33Z" fill="white"/>
<path d="M38.8279 163.017C42.7795 163.017 46.7354 162.124 49.753 160.338C52.7202 158.581 54.3561 156.236 54.3594 153.734C54.3632 151.252 52.7539 148.925 49.8299 147.182C43.8318 143.608 34.0385 143.608 27.9996 147.184C25.0361 148.938 23.4021 151.281 23.399 153.781C23.3952 156.265 25.005 158.594 27.9309 160.338C30.93 162.124 34.8764 163.017 38.8279 163.017ZM38.9316 144.831C42.8252 144.831 46.7125 145.711 49.6658 147.471C52.4862 149.151 54.037 151.375 54.0337 153.734C54.0306 156.112 52.4525 158.354 49.5901 160.049C43.644 163.568 34.0015 163.569 28.0949 160.049C25.2732 158.368 23.7206 156.142 23.7244 153.782C23.7275 151.406 25.3037 149.165 28.1623 147.473C31.1373 145.711 35.0373 144.831 38.9316 144.831Z" fill="#383C43"/>
<g opacity="0.1">
<path d="M45.0909 150.51C48.2027 152.353 48.2153 155.341 45.1237 157.183C42.0321 159.025 37.0048 159.025 33.8929 157.183C30.7812 155.341 30.7609 152.353 33.8525 150.51C36.9442 148.668 41.9791 148.668 45.0909 150.51Z" fill="#383C43"/>
</g>
<path d="M19.8938 105.127L26.0776 101.443C26.3103 101.304 26.6228 101.3 26.9734 101.448C28.9784 102.287 30.7719 102.234 32.1328 101.423L25.9491 105.107C24.5882 105.918 22.7946 105.971 20.7896 105.133C20.4389 104.985 20.1264 104.989 19.8938 105.127Z" fill="#383C43"/>
<path d="M61.3984 123.543L61.3804 129.459C61.3562 136.246 59.7702 141.852 56.9297 145.833C55.8441 147.359 54.3486 148.645 52.6238 149.665L46.4423 153.355C48.1549 152.335 49.6567 151.043 50.7482 149.523C53.5887 145.536 55.1747 139.936 55.1929 133.136L55.2049 127.233C55.2109 126.838 55.0963 126.411 54.9034 126.004C54.6681 125.509 54.3123 125.045 53.8962 124.73C51.7553 123.086 49.8617 120.719 48.4807 118.098C47.2926 115.842 46.4965 113.419 46.2312 111.107C46.1769 110.581 45.9599 110.038 45.6583 109.58C45.4109 109.215 45.1155 108.906 44.7839 108.708L29.9604 99.9374C29.5624 99.6964 29.1945 99.6717 28.9353 99.8385L35.1227 96.1484C35.3881 95.9939 35.7439 96.0184 36.154 96.2534L50.9714 105.024C51.2971 105.216 51.5986 105.531 51.8399 105.896C52.1475 106.353 52.3645 106.897 52.4249 107.417C52.6781 109.735 53.4742 112.164 54.6623 114.414C56.0433 117.034 57.9369 119.408 60.0899 121.052C60.5 121.361 60.8498 121.825 61.085 122.319C61.2779 122.727 61.3984 123.154 61.3984 123.543Z" fill="#383C43"/>
<path d="M44.785 108.711C45.5285 109.151 46.1327 110.17 46.2373 111.103C46.4961 113.42 47.2952 115.846 48.4827 118.1C49.8629 120.72 51.7539 123.089 53.9019 124.733C54.6451 125.299 55.2134 126.345 55.2109 127.233L55.1946 133.143C55.1758 139.935 53.5842 145.537 50.7473 149.519C48.0692 153.27 42.9263 155.575 38.1148 156.08C37.8443 156.109 37.5386 156.023 37.233 155.842C36.9275 155.661 36.6222 155.386 36.3528 155.037C31.5598 148.846 26.4465 140.47 23.7978 133.566C20.9871 126.24 19.4367 118.778 19.4555 111.986L19.4719 106.076C19.4743 105.188 20.0466 104.818 20.7905 105.132C22.9354 106.029 24.8383 105.906 26.2285 104.926C27.4194 104.08 28.2344 102.609 28.5053 100.606C28.6146 99.7995 29.2174 99.4951 29.966 99.9384L44.785 108.711Z" fill="white"/>
<path d="M38.0106 156.253C38.0525 156.253 38.0932 156.251 38.1333 156.246C43.4772 155.685 48.3614 153.146 50.8798 149.618C53.7918 145.531 55.34 139.835 55.3584 133.144L55.375 127.234C55.3775 126.317 54.7996 125.209 54.0004 124.6C51.9392 123.023 50.031 120.686 48.6273 118.021C47.4218 115.734 46.6518 113.335 46.4 111.085C46.2881 110.085 45.6434 109.026 44.8678 108.567L30.0484 99.7947C29.6352 99.5487 29.2308 99.5014 28.9109 99.6618C28.6064 99.8143 28.4055 100.142 28.3451 100.584C28.0876 102.492 27.3239 103.946 26.137 104.789C24.7591 105.76 22.8823 105.827 20.8534 104.978C20.4401 104.804 20.0542 104.816 19.7687 105.012C19.4743 105.213 19.3116 105.591 19.3103 106.076L19.2938 111.986C19.2753 118.674 20.7809 126.158 23.6477 133.627C26.1178 140.066 30.9372 148.31 36.2258 155.141C36.5031 155.499 36.8235 155.792 37.1528 155.987C37.4485 156.162 37.7422 156.253 38.0106 156.253ZM44.7049 108.856C45.3871 109.26 45.9772 110.235 46.077 111.123C46.3326 113.415 47.1158 115.855 48.3411 118.18C49.7665 120.886 51.7071 123.261 53.8058 124.868C54.5287 125.418 55.052 126.413 55.0495 127.233L55.0329 133.143C55.0151 139.763 53.4879 145.392 50.6166 149.421C48.1516 152.875 43.3551 155.363 38.0996 155.915C37.8669 155.938 37.5973 155.865 37.3156 155.698C37.0212 155.524 36.7326 155.26 36.4814 154.934C31.2112 148.126 26.4097 139.915 23.9504 133.505C21.0988 126.074 19.6016 118.634 19.6193 111.987L19.6358 106.077C19.6371 105.707 19.7483 105.427 19.9493 105.29C20.1419 105.157 20.4211 105.156 20.7295 105.287C22.8658 106.181 24.8501 106.101 26.322 105.064C27.5859 104.166 28.3972 102.633 28.6681 100.63C28.7126 100.301 28.8492 100.064 29.0533 99.9616C29.2733 99.8515 29.5684 99.8955 29.8856 100.083L44.7049 108.856Z" fill="#383C43"/>
<path d="M22.5697 111.995C22.549 118.263 23.9761 125.319 26.6954 132.396C28.9891 138.377 33.6441 146.353 38.5948 152.802C42.461 152.222 46.0002 150.408 47.9255 148.034L47.9307 148.029C48.0344 147.901 48.1382 147.768 48.2316 147.635C50.7329 144.123 52.0614 139.111 52.0822 133.136L52.0977 127.378C52.077 127.341 52.0509 127.304 52.0354 127.293C49.5652 125.399 47.3908 122.749 45.7406 119.615C44.3394 116.955 43.4416 114.14 43.151 111.506C43.1407 111.479 43.1199 111.437 43.0991 111.399L31.1581 104.328L30.7586 104.094C30.4576 104.775 30.0891 105.397 29.6532 105.956C29.5857 106.052 29.508 106.148 29.4197 106.238C29.3626 106.313 29.2952 106.392 29.2278 106.462C28.989 106.728 28.7296 106.972 28.4545 107.201C28.304 107.329 28.1482 107.446 27.9926 107.558C27.8629 107.648 27.7279 107.739 27.5879 107.819C27.4581 107.904 27.3231 107.978 27.1883 108.047C27.126 108.084 27.0585 108.117 26.9859 108.148C26.9599 108.164 26.9288 108.18 26.8977 108.191C26.8095 108.234 26.7213 108.276 26.6278 108.313C26.5707 108.34 26.5136 108.367 26.4513 108.388C26.3164 108.441 26.1712 108.494 26.031 108.537C25.8961 108.585 25.7611 108.627 25.6211 108.659C25.5795 108.675 25.5327 108.686 25.4861 108.696C25.3408 108.734 25.1902 108.766 25.0449 108.792C25.019 108.797 24.9878 108.803 24.9568 108.808C24.7907 108.84 24.6246 108.861 24.4534 108.883C24.4274 108.883 24.4015 108.888 24.3754 108.888C24.2043 108.909 24.0278 108.92 23.8565 108.925H23.8357C23.7423 108.93 23.6438 108.93 23.5503 108.93C23.2285 108.93 22.9016 108.915 22.5746 108.877L22.5697 111.995Z" fill="#383C43"/>
<path d="M23.8307 110.702C23.8101 116.97 25.2372 124.026 27.9564 131.103C30.2501 137.084 34.9051 145.06 39.8558 151.509C42.9851 151.041 45.9067 149.764 47.9255 148.034L47.9307 148.029C48.0344 147.901 48.1382 147.768 48.2316 147.635C50.7329 144.123 52.0614 139.111 52.0822 133.136L52.0977 127.378C52.077 127.341 52.0509 127.304 52.0354 127.293C49.5652 125.399 47.3908 122.749 45.7406 119.615C44.3394 116.955 43.4416 114.14 43.151 111.506C43.1407 111.479 43.1199 111.437 43.0991 111.399L31.1581 104.328L30.7586 104.094C30.4576 104.775 30.0891 105.397 29.6532 105.956C29.5805 106.052 29.5028 106.148 29.4197 106.238C29.3626 106.313 29.2952 106.392 29.2278 106.462C28.989 106.728 28.7296 106.972 28.4545 107.201C28.304 107.329 28.1534 107.446 27.9926 107.558C27.8629 107.648 27.7279 107.739 27.5879 107.819C27.4581 107.904 27.3231 107.978 27.1883 108.047C27.126 108.084 27.0534 108.117 26.9859 108.148C26.9599 108.164 26.9288 108.18 26.8977 108.191C26.8095 108.234 26.7213 108.276 26.6278 108.313C26.5707 108.34 26.5136 108.367 26.4513 108.388C26.3164 108.441 26.1763 108.494 26.031 108.537C25.8961 108.585 25.7611 108.622 25.6211 108.659C25.5795 108.675 25.5327 108.686 25.4861 108.696C25.3408 108.734 25.1954 108.766 25.0449 108.792C25.019 108.797 24.9878 108.803 24.9568 108.808C24.7907 108.835 24.6246 108.861 24.4534 108.883C24.4275 108.883 24.4015 108.888 24.3754 108.888C24.2043 108.904 24.033 108.92 23.8565 108.925H23.8357L23.8307 110.702Z" fill="url(#paint8_linear_3210_30617)"/>
<path d="M38.415 117.514C33.5949 114.661 29.6718 116.942 29.656 122.632C29.6404 128.31 33.538 135.232 38.3581 138.085C43.1781 140.938 47.1015 138.646 47.1171 132.968C47.1329 127.277 43.2351 120.367 38.415 117.514Z" fill="white"/>
<path d="M34.7688 127.139L35.6704 130.305L44.0642 127.889" fill="white"/>
<path d="M35.4307 130.59C35.3795 130.544 35.3399 130.483 35.3195 130.41L34.4177 127.245C34.3602 127.044 34.4727 126.834 34.6691 126.777C34.8649 126.72 35.0705 126.835 35.1279 127.038L35.9261 129.84L43.9655 127.526C44.1619 127.47 44.3669 127.587 44.4241 127.789C44.4806 127.99 44.3673 128.199 44.1711 128.256L35.7773 130.672C35.6516 130.708 35.5225 130.673 35.4307 130.59Z" fill="#383C43"/>
<path d="M82.9301 76.1911C83.6891 76.6403 83.6901 77.3771 82.9324 77.8284L70.8076 85.051C69.9846 85.5412 68.637 85.5431 67.8127 85.0553L55.3979 77.7082C54.747 77.3231 54.7461 76.6912 55.3959 76.3041L67.717 68.9646C68.5399 68.4744 69.8877 68.4725 70.7119 68.9603L82.9301 76.1911Z" fill="white"/>
<path d="M69.307 85.5863C69.8805 85.5866 70.454 85.4563 70.8908 85.1966L83.0155 77.974C83.4345 77.7244 83.6647 77.382 83.6641 77.0099C83.6641 76.6378 83.4326 76.2963 83.013 76.0481L70.7948 68.8173C69.9243 68.3015 68.5078 68.3032 67.6361 68.8218L55.3156 76.1611C54.9493 76.3797 54.7471 76.6804 54.7478 77.0086C54.7484 77.3364 54.9512 77.6367 55.3181 77.8537L67.7328 85.2008C68.167 85.4579 68.7366 85.5863 69.307 85.5863ZM82.8502 76.3366C83.165 76.523 83.3385 76.7621 83.3385 77.0102C83.3391 77.2585 83.1663 77.4983 82.8515 77.6853L70.7267 84.9079C69.96 85.3645 68.6635 85.3664 67.8954 84.9122L55.4808 77.565C55.2182 77.4097 55.0739 77.2118 55.0733 77.0079C55.0733 76.8039 55.2169 76.6057 55.4795 76.4498L67.8001 69.1105C68.5675 68.6531 69.8645 68.6521 70.6319 69.106L82.8502 76.3366Z" fill="#DBDEE4"/>
<path d="M64.5509 74.2008C61.932 75.7508 61.9181 78.2626 64.5245 79.8151C67.1264 81.365 71.3569 81.3651 73.9759 79.8151C76.5905 78.2678 76.6042 75.7559 74.0023 74.206C71.396 72.6536 67.1654 72.6536 64.5509 74.2008Z" fill="white"/>
<path d="M69.2407 81.1401C70.9822 81.1401 72.7249 80.7469 74.0543 79.9596C75.3756 79.178 76.1035 78.1282 76.1055 77.0037C76.1067 75.8852 75.3883 74.8405 74.0817 74.0618C71.4368 72.4871 67.1247 72.4838 64.467 74.0566C63.1439 74.8392 62.414 75.8901 62.4128 77.0151C62.4108 78.134 63.1312 79.1796 64.4397 79.9596C65.761 80.7465 67.4999 81.1401 69.2407 81.1401ZM69.2725 73.2075C70.9561 73.2075 72.6391 73.5888 73.9177 74.3505C75.1201 75.0667 75.7813 76.0086 75.78 77.003C75.7788 78.0037 75.108 78.9511 73.8917 79.6709C71.3237 81.1912 67.156 81.1925 64.6038 79.6709C63.3996 78.9535 62.7371 78.0105 62.7384 77.0158C62.7397 76.0145 63.4117 75.0664 64.6299 74.3453C65.9116 73.5868 67.5928 73.2075 69.2725 73.2075Z" fill="#383C43"/>
<path d="M73.5859 62.837L73.5351 76.5455C73.5333 77.1958 73.1159 77.8454 72.2817 78.3424C70.6059 79.3406 67.8812 79.3406 66.1944 78.3424C65.3473 77.8411 64.9242 77.1826 64.9259 76.525L64.9768 62.8164C64.975 63.4742 65.3982 64.1325 66.2452 64.6338C67.932 65.6321 70.6567 65.6321 72.3325 64.6338C73.1667 64.1369 73.5842 63.4873 73.5859 62.837Z" fill="white"/>
<path d="M72.3324 64.6347C71.4999 65.1306 70.4085 65.3791 69.3142 65.3822V79.088C70.3913 79.0773 71.4621 78.8315 72.2817 78.3434C73.116 77.8462 73.5333 77.1967 73.5351 76.5465L73.5859 62.8379C73.5841 63.4882 73.1666 64.1379 72.3324 64.6347Z" fill="#DBDEE4"/>
<path d="M69.2435 79.2563C70.3759 79.2563 71.5063 79.0009 72.3653 78.4894C73.223 77.9779 73.6973 77.2887 73.6992 76.5487L73.75 62.8401C73.75 62.7479 73.6775 62.673 73.5878 62.6727H73.5872C73.4976 62.6727 73.4251 62.747 73.4245 62.8389V62.8415C73.4213 63.4574 73.0055 64.0439 72.252 64.4922C70.6244 65.4619 67.9667 65.4616 66.3276 64.4922C65.5608 64.0386 65.1393 63.4447 65.1406 62.8198V62.8195C65.1406 62.7272 65.0681 62.6526 64.9784 62.6523C64.9778 62.6523 64.9778 62.6523 64.9778 62.6523C64.8882 62.6523 64.8156 62.7266 64.815 62.8186V62.8189C64.815 62.8196 64.815 62.8205 64.815 62.8212L64.7648 76.5272C64.7628 77.2766 65.2423 77.9735 66.1146 78.4897C66.9788 79.0009 68.1118 79.2563 69.2435 79.2563ZM73.4207 63.8717L73.3737 76.5474C73.3717 77.1642 72.9553 77.7513 72.2012 78.2007C70.5735 79.1703 67.9165 79.1703 66.2775 78.2007C65.51 77.7465 65.0885 77.1525 65.0904 76.5282L65.1368 63.8492C65.3657 64.1965 65.7122 64.5133 66.1649 64.7808C67.8931 65.8039 70.6969 65.8039 72.4161 64.7808C72.8555 64.5188 73.1943 64.2099 73.4207 63.8717Z" fill="#383C43"/>
<path d="M72.3154 61.0146C74.0022 62.0128 74.011 63.6306 72.3324 64.6305C70.6567 65.6287 67.932 65.6287 66.2451 64.6305C64.5612 63.634 64.5524 62.0162 66.2281 61.018C67.9067 60.018 70.6314 60.018 72.3154 61.0146Z" fill="white"/>
<path d="M69.2943 65.5447C70.426 65.5447 71.5565 65.2889 72.416 64.7774C73.2776 64.2639 73.7513 63.5725 73.75 62.8296C73.7494 62.0831 73.2693 61.3878 72.3983 60.8727C70.6702 59.8506 67.8669 59.8529 66.1477 60.8763C65.2874 61.3885 64.8144 62.0796 64.815 62.8222C64.8163 63.5684 65.2957 64.263 66.1648 64.7775C67.029 65.2889 68.1626 65.5447 69.2943 65.5447ZM72.2356 61.1613C73.0017 61.6148 73.4239 62.2075 73.4245 62.8301C73.4257 63.4489 73.0093 64.0377 72.252 64.4887C70.6244 65.4583 67.9667 65.458 66.3276 64.4887C65.5633 64.0361 65.1418 63.444 65.1406 62.8214C65.14 62.203 65.5557 61.6149 66.3116 61.1649C67.9401 60.1946 70.5984 60.193 72.2356 61.1613Z" fill="#383C43"/>
<path d="M72.1367 53.3497L72.1029 62.4296C72.1018 62.862 71.8241 63.294 71.2693 63.6245C70.1548 64.2884 68.3429 64.2884 67.2211 63.6245C66.6578 63.2911 66.3764 62.8532 66.3776 62.4158L66.4114 53.3359C66.4102 53.7734 66.6916 54.2112 67.2549 54.5446C68.3766 55.2084 70.1887 55.2084 71.3031 54.5446C71.8579 54.2141 72.1355 53.7822 72.1367 53.3497Z" fill="white"/>
<path d="M71.3031 54.5445C70.7545 54.8713 70.0365 55.0355 69.3153 55.0405V64.1185C70.0251 64.1085 70.7293 63.9461 71.2693 63.6245C71.8241 63.294 72.1018 62.862 72.1029 62.4296L72.1367 53.3496C72.1355 53.7821 71.8579 54.214 71.3031 54.5445Z" fill="#DBDEE4"/>
<path d="M69.2535 64.2868C70.0158 64.2868 70.7775 64.1144 71.3567 63.7696C71.9448 63.419 72.2697 62.9436 72.271 62.4311L72.3047 53.3512C72.3047 53.259 72.2322 53.1841 72.1425 53.1838H72.1419C72.0523 53.1838 71.9797 53.258 71.9792 53.35V53.351C71.9779 53.7401 71.7102 54.1132 71.2263 54.4011C70.1595 55.0371 68.4161 55.0365 67.3416 54.4011C66.8489 54.1095 66.578 53.7319 66.5793 53.3373C66.5793 53.2451 66.5068 53.1702 66.4172 53.1699H66.4165C66.3269 53.1699 66.2543 53.2442 66.2538 53.336L66.2201 62.4163C66.2188 62.9353 66.5469 63.4159 67.1451 63.7697C67.7276 64.1144 68.4905 64.2868 69.2535 64.2868ZM71.9759 54.2024L71.9454 62.4299C71.9441 62.8193 71.677 63.1927 71.1926 63.481C70.1257 64.1174 68.3823 64.1167 67.3078 63.481C66.8151 63.1895 66.5442 62.8118 66.5455 62.4176L66.5761 54.1881C66.7274 54.3732 66.9296 54.5427 67.1788 54.6899C68.3437 55.379 70.2319 55.3797 71.3904 54.6899C71.6307 54.5461 71.8278 54.3819 71.9759 54.2024Z" fill="#383C43"/>
<path d="M71.2918 52.1413C72.4135 52.8052 72.4194 53.8811 71.3031 54.5461C70.1887 55.2099 68.3767 55.2099 67.255 54.5461C66.1351 53.8833 66.1292 52.8074 67.2436 52.1436C68.3599 51.4786 70.1719 51.4786 71.2918 52.1413Z" fill="url(#paint9_linear_3210_30617)"/>
<path d="M69.2872 55.2048C70.0495 55.2048 70.8112 55.0324 71.3904 54.6877C71.9804 54.3358 72.3053 53.8588 72.3047 53.344C72.3041 52.827 71.9747 52.3473 71.3783 51.9944C70.2148 51.3054 68.3265 51.307 67.1668 51.9967C66.5774 52.348 66.2532 52.8246 66.2538 53.3392C66.2543 53.8566 66.5831 54.3356 67.1788 54.6878C67.7612 55.0323 68.5241 55.2044 69.2872 55.2048ZM69.2737 51.8073C69.9763 51.8073 70.6795 51.9657 71.2155 52.283C71.7076 52.5743 71.9785 52.9513 71.9791 53.3446C71.9796 53.7353 71.7127 54.1097 71.2262 54.3989C70.1588 55.0349 68.4153 55.0349 67.3415 54.3989C66.8507 54.1083 66.5798 53.7316 66.5792 53.3387C66.5786 52.948 66.8456 52.5739 67.3307 52.2852C67.8655 51.9666 68.5693 51.8073 69.2737 51.8073Z" fill="#383C43"/>
<path d="M66.5824 46.3398V53.3164C66.5963 53.7152 66.8602 54.1068 67.3673 54.4129C68.4301 55.0395 70.1388 55.0395 71.1947 54.4129C71.7018 54.1067 71.9587 53.7152 71.9727 53.3164V46.3398H66.5824Z" fill="url(#paint10_linear_3210_30617)"/>
<path d="M7.45186 159.916C8.6301 160.612 8.63676 161.741 7.46616 162.437C6.29565 163.132 4.39045 163.132 3.21221 162.436C2.03397 161.74 2.02829 160.612 3.19879 159.917C4.3694 159.221 6.27362 159.22 7.45186 159.916Z" fill="white"/>
<path d="M5.34787 163.121C6.14769 163.121 6.94626 162.941 7.55286 162.58C8.16955 162.214 8.5085 161.717 8.50781 161.18C8.50713 160.64 8.16258 160.14 7.53816 159.771C6.31614 159.05 4.33436 159.05 3.12253 159.772C2.50584 160.138 2.1663 160.635 2.16689 161.172C2.16747 161.711 2.51211 162.211 3.13585 162.58C3.74695 162.941 4.54804 163.121 5.34787 163.121ZM5.32819 159.559C6.06886 159.559 6.81023 159.726 7.3755 160.06C7.89494 160.367 8.18169 160.765 8.18238 161.181C8.18297 161.593 7.9013 161.988 7.39018 162.292C6.26541 162.96 4.42985 162.959 3.29882 162.291C2.77938 161.984 2.4932 161.587 2.49261 161.171C2.49202 160.759 2.7737 160.365 3.2855 160.06C3.84744 159.726 4.58752 159.559 5.32819 159.559Z" fill="#DBDEE4"/>
<path d="M7.45186 159.916C8.6301 160.612 8.63676 161.741 7.46616 162.437C6.29565 163.132 4.39045 163.132 3.21221 162.436C2.03397 161.74 2.02829 160.612 3.19879 159.917C4.3694 159.221 6.27362 159.22 7.45186 159.916Z" fill="white"/>
<path d="M5.34787 163.121C6.14769 163.121 6.94626 162.941 7.55286 162.58C8.16955 162.214 8.5085 161.717 8.50781 161.18C8.50713 160.64 8.16258 160.14 7.53816 159.771C6.31614 159.05 4.33436 159.05 3.12253 159.772C2.50584 160.138 2.1663 160.635 2.16689 161.172C2.16747 161.711 2.51211 162.211 3.13585 162.58C3.74695 162.941 4.54804 163.121 5.34787 163.121ZM5.32819 159.559C6.06886 159.559 6.81023 159.726 7.3755 160.06C7.89494 160.367 8.18169 160.765 8.18238 161.181C8.18297 161.593 7.9013 161.988 7.39018 162.292C6.26541 162.96 4.42985 162.959 3.29882 162.291C2.77938 161.984 2.4932 161.587 2.49261 161.171C2.49202 160.759 2.7737 160.365 3.2855 160.06C3.84744 159.726 4.58752 159.559 5.32819 159.559Z" fill="#DBDEE4"/>
<path d="M5.33969 161.969C4.88038 161.969 4.43584 161.862 4.1201 161.675C3.86655 161.525 3.72094 161.342 3.72074 161.171C3.72055 161.002 3.86324 160.82 4.11229 160.672C4.42548 160.486 4.86812 160.379 5.32694 160.379C5.78586 160.379 6.23 160.486 6.54554 160.672C6.79939 160.822 6.94502 161.006 6.94531 161.177C6.94551 161.346 6.8029 161.528 6.55415 161.676C6.24106 161.862 5.79851 161.969 5.33969 161.969Z" fill="url(#paint11_linear_3210_30617)"/>
<path d="M12.8813 166.453C12.3881 166.453 11.9106 166.339 11.5715 166.138C11.2991 165.977 11.1428 165.78 11.1425 165.596C11.1423 165.415 11.2955 165.22 11.563 165.061C11.8993 164.861 12.3748 164.746 12.8675 164.746C13.3603 164.746 13.8373 164.861 14.1762 165.061C14.4488 165.222 14.6053 165.42 14.6055 165.604C14.6057 165.785 14.4526 165.98 14.1854 166.139C13.8493 166.339 13.3741 166.453 12.8813 166.453Z" fill="#383C43"/>
<path d="M13.4597 91.4112C14.6379 90.7154 14.6446 89.5866 13.4741 88.8908C12.3036 88.195 10.3983 88.1953 9.22011 88.8911C8.04186 89.587 8.03619 90.7151 9.20679 91.4109C10.3773 92.1067 12.2815 92.1069 13.4597 91.4112Z" fill="white"/>
<path d="M11.332 92.0979C12.1312 92.0979 12.9311 91.9178 13.5421 91.5574C14.1664 91.1885 14.511 90.688 14.5117 90.1478C14.5124 89.6115 14.1735 89.1143 13.5568 88.7481C12.3437 88.0267 10.3619 88.0267 9.13987 88.7481C8.51613 89.1166 8.1715 89.6167 8.17091 90.1564C8.17023 90.693 8.50977 91.1902 9.12656 91.5568C9.73296 91.9175 10.5322 92.0979 11.332 92.0979ZM11.3517 88.536C12.0924 88.536 12.8319 88.7028 13.3939 89.0368C13.9051 89.3408 14.1868 89.7354 14.1861 90.1475C14.1854 90.5633 13.8987 90.9615 13.3792 91.268C12.2488 91.936 10.4132 91.9366 9.28912 91.268C8.77732 90.9637 8.49566 90.5691 8.49625 90.157C8.49684 89.7415 8.78299 89.3437 9.30244 89.0374C9.86839 88.7031 10.6103 88.536 11.3517 88.536Z" fill="#DBDEE4"/>
<path d="M13.4597 91.4112C14.6379 90.7154 14.6446 89.5866 13.4741 88.8908C12.3036 88.195 10.3983 88.1953 9.22011 88.8911C8.04186 89.587 8.03619 90.7151 9.20679 91.4109C10.3773 92.1067 12.2815 92.1069 13.4597 91.4112Z" fill="white"/>
<path d="M11.332 92.0979C12.1312 92.0979 12.9311 91.9178 13.5421 91.5574C14.1664 91.1885 14.511 90.688 14.5117 90.1478C14.5124 89.6115 14.1735 89.1143 13.5568 88.7481C12.3437 88.0267 10.3619 88.0267 9.13987 88.7481C8.51613 89.1166 8.1715 89.6167 8.17091 90.1564C8.17023 90.693 8.50977 91.1902 9.12656 91.5568C9.73296 91.9175 10.5322 92.0979 11.332 92.0979ZM11.3517 88.536C12.0924 88.536 12.8319 88.7028 13.3939 89.0368C13.9051 89.3408 14.1868 89.7354 14.1861 90.1475C14.1854 90.5633 13.8987 90.9615 13.3792 91.268C12.2488 91.936 10.4132 91.9366 9.28912 91.268C8.77732 90.9637 8.49566 90.5691 8.49625 90.157C8.49684 89.7415 8.78299 89.3437 9.30244 89.0374C9.86839 88.7031 10.6103 88.536 11.3517 88.536Z" fill="#DBDEE4"/>
<path d="M11.3515 89.3594C10.8922 89.3594 10.4477 89.4664 10.1318 89.6528C9.8783 89.8025 9.73266 89.9864 9.73246 90.1574C9.73226 90.3263 9.87496 90.5081 10.124 90.6561C10.4372 90.8422 10.8799 90.949 11.3387 90.949C11.7976 90.949 12.2417 90.8421 12.5573 90.6557C12.8111 90.5059 12.9567 90.3217 12.957 90.1505C12.9572 89.9816 12.8146 89.7999 12.5659 89.652C12.2529 89.4661 11.8103 89.3594 11.3515 89.3594Z" fill="url(#paint12_linear_3210_30617)"/>
<path d="M20.6157 84.0234C20.1224 84.0234 19.645 84.1383 19.3059 84.3386C19.0335 84.4994 18.8772 84.697 18.8769 84.8805C18.8767 85.0619 19.0299 85.2572 19.2973 85.4162C19.6337 85.616 20.1091 85.7307 20.6018 85.7307C21.0946 85.7307 21.5716 85.6159 21.9106 85.4158C22.1831 85.2548 22.3395 85.0571 22.3398 84.8733C22.34 84.6919 22.187 84.4968 21.9197 84.3379C21.5837 84.1381 21.1084 84.0234 20.6157 84.0234Z" fill="#383C43"/>
<path d="M51.8306 66.4199C51.3373 66.4199 50.8598 66.5348 50.5207 66.7351C50.2483 66.8959 50.092 67.0934 50.0918 67.277C50.0916 67.4584 50.2447 67.6536 50.5122 67.8126C50.8485 68.0126 51.324 68.1272 51.8167 68.1271C52.3095 68.1271 52.7865 68.0123 53.1255 67.8122C53.398 67.6512 53.5545 67.4535 53.5547 67.2696C53.5549 67.0882 53.4018 66.8931 53.1345 66.7342C52.7986 66.5344 52.3234 66.4199 51.8306 66.4199Z" fill="#383C43"/>
<path d="M86.2446 86.709C85.7513 86.709 85.2739 86.8238 84.9348 87.0242C84.6624 87.185 84.5061 87.3825 84.5058 87.5661C84.5056 87.7475 84.6588 87.9427 84.9262 88.1017C85.2625 88.3017 85.738 88.4163 86.2307 88.4163C86.7235 88.4163 87.2006 88.3015 87.5395 88.1013C87.8121 87.9403 87.9685 87.7426 87.9687 87.5588C87.9689 87.3774 87.8159 87.1823 87.5486 87.0234C87.2127 86.8235 86.7374 86.7089 86.2446 86.709Z" fill="#383C43"/>
<path d="M74.9081 103.444C73.73 102.749 73.7232 101.62 74.8937 100.924C76.0642 100.228 77.9694 100.229 79.1477 100.924C80.3259 101.62 80.3316 102.748 79.1611 103.444C77.9905 104.14 76.0862 104.14 74.9081 103.444Z" fill="white"/>
<path d="M77.038 104.131C77.8378 104.131 78.6371 103.951 79.2436 103.59C79.8603 103.223 80.1998 102.726 80.1992 102.19C80.1985 101.65 79.854 101.15 79.2303 100.781C78.0082 100.06 76.027 100.06 74.8139 100.781C74.1972 101.148 73.8583 101.645 73.859 102.181C73.8596 102.721 74.2036 103.222 74.8279 103.591C75.4384 103.951 76.2388 104.131 77.038 104.131ZM77.0189 100.569C77.7596 100.569 78.5016 100.736 79.0675 101.071C79.5869 101.377 79.8731 101.775 79.8737 102.19C79.8743 102.602 79.5926 102.997 79.0808 103.301C77.9573 103.969 76.1218 103.969 74.9907 103.301C74.4713 102.995 74.1851 102.597 74.1845 102.181C74.1839 101.769 74.4656 101.374 74.9767 101.07C75.5387 100.736 76.2782 100.569 77.0189 100.569Z" fill="#DBDEE4"/>
<path d="M74.9081 103.44C73.73 102.745 73.7232 101.616 74.8937 100.92C76.0642 100.224 77.9694 100.225 79.1477 100.92C80.3259 101.616 80.3316 102.744 79.1611 103.44C77.9905 104.136 76.0862 104.136 74.9081 103.44Z" fill="white"/>
<path d="M77.038 104.125C77.8378 104.125 78.6371 103.945 79.2436 103.584C79.8603 103.217 80.1998 102.72 80.1992 102.184C80.1985 101.644 79.854 101.144 79.2303 100.775C78.0082 100.054 76.027 100.054 74.8139 100.775C74.1972 101.142 73.8583 101.639 73.859 102.175C73.8596 102.715 74.2036 103.216 74.8279 103.585C75.4384 103.945 76.2388 104.125 77.038 104.125ZM77.0189 100.563C77.7596 100.563 78.5016 100.73 79.0675 101.065C79.5869 101.371 79.8731 101.769 79.8737 102.184C79.8743 102.596 79.5926 102.991 79.0808 103.295C77.9573 103.963 76.1218 103.963 74.9907 103.295C74.4713 102.989 74.1851 102.591 74.1845 102.175C74.1839 101.763 74.4656 101.368 74.9767 101.064C75.5387 100.73 76.2782 100.563 77.0189 100.563Z" fill="#DBDEE4"/>
<path d="M77.0256 101.387C77.4849 101.387 77.9294 101.494 78.2452 101.68C78.4987 101.83 78.6443 102.014 78.6445 102.185C78.6447 102.354 78.502 102.535 78.253 102.683C77.9398 102.87 77.4971 102.976 77.0383 102.976C76.5794 102.976 76.1353 102.869 75.8197 102.683C75.5659 102.533 75.4203 102.349 75.42 102.178C75.4198 102.009 75.5623 101.827 75.8111 101.679C76.1242 101.493 76.5669 101.387 77.0256 101.387Z" fill="url(#paint13_linear_3210_30617)"/>
<path d="M67.7495 96.0527C68.2428 96.0527 68.7202 96.1676 69.0593 96.3679C69.3317 96.5287 69.488 96.7263 69.4883 96.9098C69.4885 97.0912 69.3353 97.2865 69.0679 97.4455C68.7315 97.6453 68.2561 97.76 67.7634 97.76C67.2706 97.76 66.7935 97.6452 66.4546 97.4451C66.182 97.2841 66.0255 97.0864 66.0252 96.9025C66.0251 96.7211 66.1781 96.526 66.4454 96.3671C66.7814 96.1673 67.2567 96.0527 67.7495 96.0527Z" fill="#383C43"/>
<defs>
<linearGradient id="paint0_linear_3210_30617" x1="10.5294" y1="137.313" x2="7.0702" y2="137.313" gradientUnits="userSpaceOnUse">
<stop stop-color="#0040C1"/>
<stop offset="1" stop-color="#6475F6"/>
</linearGradient>
<linearGradient id="paint1_linear_3210_30617" x1="91.2481" y1="158.847" x2="87.789" y2="158.847" gradientUnits="userSpaceOnUse">
<stop stop-color="#0040C1"/>
<stop offset="1" stop-color="#6475F6"/>
</linearGradient>
<linearGradient id="paint2_linear_3210_30617" x1="72.631" y1="133.397" x2="69.1718" y2="133.397" gradientUnits="userSpaceOnUse">
<stop stop-color="#0040C1"/>
<stop offset="1" stop-color="#6475F6"/>
</linearGradient>
<linearGradient id="paint3_linear_3210_30617" x1="132.658" y1="168.043" x2="129.199" y2="168.043" gradientUnits="userSpaceOnUse">
<stop stop-color="#0040C1"/>
<stop offset="1" stop-color="#6475F6"/>
</linearGradient>
<linearGradient id="paint4_linear_3210_30617" x1="117.051" y1="20.5614" x2="115.212" y2="20.5614" gradientUnits="userSpaceOnUse">
<stop stop-color="#0040C1"/>
<stop offset="1" stop-color="#6475F6"/>
</linearGradient>
<linearGradient id="paint5_linear_3210_30617" x1="138.849" y1="91.2858" x2="111.993" y2="91.2858" gradientUnits="userSpaceOnUse">
<stop stop-color="#0040C1"/>
<stop offset="1" stop-color="#6475F6"/>
</linearGradient>
<linearGradient id="paint6_linear_3210_30617" x1="58.5387" y1="38.5783" x2="41.8624" y2="38.5783" gradientUnits="userSpaceOnUse">
<stop stop-color="#0040C1"/>
<stop offset="1" stop-color="#6475F6"/>
</linearGradient>
<linearGradient id="paint7_linear_3210_30617" x1="143.769" y1="120.113" x2="112.903" y2="120.113" gradientUnits="userSpaceOnUse">
<stop stop-color="#0040C1"/>
<stop offset="1" stop-color="#6475F6"/>
</linearGradient>
<linearGradient id="paint8_linear_3210_30617" x1="53.3825" y1="124.956" x2="23.0596" y2="124.956" gradientUnits="userSpaceOnUse">
<stop stop-color="#0040C1"/>
<stop offset="1" stop-color="#6475F6"/>
</linearGradient>
<linearGradient id="paint9_linear_3210_30617" x1="72.397" y1="53.1403" x2="66.2553" y2="53.1403" gradientUnits="userSpaceOnUse">
<stop stop-color="#0040C1"/>
<stop offset="1" stop-color="#6475F6"/>
</linearGradient>
<linearGradient id="paint10_linear_3210_30617" x1="69.2775" y1="55.2059" x2="69.2775" y2="46.7326" gradientUnits="userSpaceOnUse">
<stop stop-color="#3F59FF"/>
<stop offset="1" stop-color="white"/>
</linearGradient>
<linearGradient id="paint11_linear_3210_30617" x1="7.09188" y1="161.078" x2="3.6328" y2="161.078" gradientUnits="userSpaceOnUse">
<stop stop-color="#0040C1"/>
<stop offset="1" stop-color="#6475F6"/>
</linearGradient>
<linearGradient id="paint12_linear_3210_30617" x1="13.1036" y1="90.0588" x2="9.64452" y2="90.0588" gradientUnits="userSpaceOnUse">
<stop stop-color="#0040C1"/>
<stop offset="1" stop-color="#6475F6"/>
</linearGradient>
<linearGradient id="paint13_linear_3210_30617" x1="78.7911" y1="102.086" x2="75.332" y2="102.086" gradientUnits="userSpaceOnUse">
<stop stop-color="#0040C1"/>
<stop offset="1" stop-color="#6475F6"/>
</linearGradient>
</defs>
</svg>
