<svg width="195" height="147" viewBox="0 0 195 147" fill="none" xmlns="http://www.w3.org/2000/svg">
<path d="M62.9307 107.013V113.87H56.0742V107.013H62.9307ZM138.929 31.0156V37.8721H132.071V31.0156H138.929ZM62.9307 31.0156V37.8721H56.0742V31.0156H62.9307Z" fill="black" stroke="#020204" stroke-width="4"/>
<path d="M32.3594 7.30469H162.641V137.586H32.3594V7.30469Z" fill="white" stroke="#020204" stroke-width="4" stroke-linejoin="round"/>
<path d="M54.0742 29.0156H64.931V39.8724H54.0742V29.0156ZM54.0742 105.013H64.931V115.87H54.0742V105.013ZM130.072 29.0156H140.928V39.8724H130.072V29.0156Z" fill="#3F3F3F" stroke="#020204" stroke-width="4" stroke-linejoin="round"/>
<path d="M48.6436 82.5859C49.0379 82.5859 49.3582 82.9055 49.3584 83.2998C49.3584 83.6942 49.038 84.0146 48.6436 84.0146C48.2493 84.0145 47.9297 83.6941 47.9297 83.2998C47.9299 82.9056 48.2494 82.5861 48.6436 82.5859Z" fill="black" stroke="#020204" stroke-width="4"/>
<path d="M43.2139 77.1602C43.6082 77.1602 43.9285 77.4797 43.9287 77.874C43.9287 78.2685 43.6083 78.5889 43.2139 78.5889C42.8196 78.5887 42.5 78.2684 42.5 77.874C42.5002 77.4798 42.8197 77.1603 43.2139 77.1602Z" fill="black" stroke="#020204" stroke-width="4"/>
<path d="M54.0732 77.1602C54.4676 77.1602 54.7879 77.4797 54.7881 77.874C54.7881 78.2685 54.4677 78.5889 54.0732 78.5889C53.679 78.5887 53.3594 78.2684 53.3594 77.874C53.3596 77.4798 53.6791 77.1603 54.0732 77.1602Z" fill="black" stroke="#020204" stroke-width="4"/>
<path d="M92.0693 98.875C92.4637 98.875 92.784 99.1946 92.7842 99.5889C92.7842 99.9833 92.4638 100.304 92.0693 100.304C91.675 100.304 91.3555 99.9832 91.3555 99.5889C91.3556 99.1947 91.6752 98.8752 92.0693 98.875Z" fill="black" stroke="#020204" stroke-width="4"/>
<path d="M108.358 77.1602C108.753 77.1602 109.073 77.4797 109.073 77.874C109.073 78.2685 108.753 78.5889 108.358 78.5889C107.964 78.5887 107.645 78.2684 107.645 77.874C107.645 77.4798 107.964 77.1603 108.358 77.1602Z" fill="black" stroke="#020204" stroke-width="4"/>
<path d="M108.358 50.0156C108.753 50.0156 109.073 50.3352 109.073 50.7295C109.073 51.1239 108.753 51.4443 108.358 51.4443C107.964 51.4442 107.645 51.1238 107.645 50.7295C107.645 50.3353 107.964 50.0158 108.358 50.0156Z" fill="black" stroke="#020204" stroke-width="4"/>
<path d="M86.6436 17.4453C87.0379 17.4453 87.3582 17.7649 87.3584 18.1592C87.3584 18.5536 87.038 18.874 86.6436 18.874C86.2493 18.8738 85.9297 18.5535 85.9297 18.1592C85.9299 17.765 86.2494 17.4455 86.6436 17.4453Z" fill="black" stroke="#020204" stroke-width="4"/>
<path d="M124.644 60.875C125.038 60.875 125.358 61.1946 125.358 61.5889C125.358 61.9833 125.038 62.3037 124.644 62.3037C124.249 62.3035 123.93 61.9832 123.93 61.5889C123.93 61.1947 124.249 60.8752 124.644 60.875Z" fill="black" stroke="#020204" stroke-width="4"/>
<path d="M140.925 60.875C141.319 60.875 141.639 61.1946 141.64 61.5889C141.64 61.9833 141.319 62.3037 140.925 62.3037C140.531 62.3035 140.211 61.9832 140.211 61.5889C140.211 61.1947 140.531 60.8752 140.925 60.875Z" fill="black" stroke="#020204" stroke-width="4"/>
<path d="M140.925 93.4453C141.319 93.4453 141.639 93.7649 141.64 94.1592C141.64 94.5536 141.319 94.874 140.925 94.874C140.531 94.8738 140.211 94.5535 140.211 94.1592C140.211 93.765 140.531 93.4455 140.925 93.4453Z" fill="black" stroke="#020204" stroke-width="4"/>
<path d="M146.354 104.301C146.749 104.301 147.069 104.62 147.069 105.015C147.069 105.409 146.749 105.729 146.354 105.729C145.96 105.729 145.641 105.409 145.641 105.015C145.641 104.62 145.96 104.301 146.354 104.301Z" fill="black" stroke="#020204" stroke-width="4"/>
<path d="M151.784 126.016C152.179 126.016 152.499 126.335 152.499 126.729C152.499 127.124 152.179 127.444 151.784 127.444C151.39 127.444 151.07 127.124 151.07 126.729C151.07 126.335 151.39 126.016 151.784 126.016Z" fill="black" stroke="#020204" stroke-width="4"/>
<path d="M86.6436 126.016C87.0379 126.016 87.3582 126.335 87.3584 126.729C87.3584 127.124 87.038 127.444 86.6436 127.444C86.2493 127.444 85.9297 127.124 85.9297 126.729C85.9299 126.335 86.2494 126.016 86.6436 126.016Z" fill="black" stroke="#020204" stroke-width="4"/>
<path d="M119.214 126.016C119.608 126.016 119.929 126.335 119.929 126.729C119.929 127.124 119.608 127.444 119.214 127.444C118.82 127.444 118.5 127.124 118.5 126.729C118.5 126.335 118.82 126.016 119.214 126.016Z" fill="black" stroke="#020204" stroke-width="4"/>
<path d="M124.644 120.586C125.038 120.586 125.358 120.906 125.358 121.3C125.358 121.694 125.038 122.015 124.644 122.015C124.249 122.014 123.93 121.694 123.93 121.3C123.93 120.906 124.249 120.586 124.644 120.586Z" fill="black" stroke="#020204" stroke-width="4"/>
<path d="M119.214 115.156C119.608 115.156 119.929 115.476 119.929 115.87C119.929 116.265 119.608 116.585 119.214 116.585C118.82 116.585 118.5 116.264 118.5 115.87C118.5 115.476 118.82 115.156 119.214 115.156Z" fill="black" stroke="#020204" stroke-width="4"/>
<path d="M43.2139 60.875C43.6082 60.875 43.9285 61.1946 43.9287 61.5889C43.9287 61.9833 43.6083 62.3037 43.2139 62.3037C42.8196 62.3035 42.5 61.9832 42.5 61.5889C42.5002 61.1947 42.8197 60.8752 43.2139 60.875Z" fill="black" stroke="#020204" stroke-width="4"/>
<path d="M108.358 120.586C108.753 120.586 109.073 120.906 109.073 121.3C109.073 121.694 108.753 122.015 108.358 122.015C107.964 122.014 107.645 121.694 107.645 121.3C107.645 120.906 107.964 120.586 108.358 120.586Z" fill="black" stroke="#020204" stroke-width="4"/>
<path d="M32.3594 7.30469H162.641V137.586H32.3594V7.30469Z" stroke="#020204" stroke-width="4" stroke-linejoin="round"/>
<path d="M43.2148 18.1641H75.7852V50.7344H43.2148V18.1641Z" stroke="#020204" stroke-width="4" stroke-linejoin="round"/>
<path d="M54.0716 29.0156H64.9284V39.8724H54.0716V29.0156ZM43.2148 94.1562H75.7852V126.727H43.2148V94.1562Z" stroke="#020204" stroke-width="4" stroke-linejoin="round"/>
<path d="M54.0742 105.018H64.931V115.875H54.0742V105.018ZM119.215 18.1641H151.785V50.7344H119.215V18.1641Z" stroke="#020204" stroke-width="4" stroke-linejoin="round"/>
<path d="M130.07 29.0156H140.927V39.8724H130.07V29.0156Z" stroke="#020204" stroke-width="4" stroke-linejoin="round"/>
<path d="M48.6445 72.4479V67.0195H70.3581M54.0729 67.0195V61.5911M64.9297 67.0195V83.3047M64.9297 77.8763H70.3581M102.928 61.5911V56.1628M151.784 67.0195H146.355M113.785 88.7331H119.214V83.3047M75.7865 61.5911H81.2148M92.0716 61.5911H108.357M102.928 18.1641V29.0208H97.5M97.5 29.0208V50.7344M97.5 29.0208H86.6432M97.5 45.306H86.6432V50.7344" stroke="#020204" stroke-width="4" stroke-linecap="round" stroke-linejoin="round"/>
<path d="M97.5026 34.4466H92.0742V23.5898M75.7891 72.4453H97.5026M81.2174 72.4453V83.3021H75.7891M92.0742 72.4453V77.8737M86.6458 94.1589V88.7305H102.931V105.016H113.788V99.5872H135.501V126.729" stroke="#020204" stroke-width="4" stroke-linecap="round" stroke-linejoin="round"/>
<path d="M97.5013 83.3008V94.1576H113.786M124.643 83.3008H113.786V105.014H119.215M130.072 67.0156V77.8724H135.5M135.5 77.8724V88.7292H130.072V99.5859M135.5 77.8724V72.444H140.928M140.928 110.443H130.072V115.871M86.6445 115.871H92.0729V121.299H97.5013V110.443M151.785 61.5872V77.8724H146.357M119.215 72.444V67.0156M151.785 88.7292V94.1576M146.357 115.871H151.785M108.358 34.4453V39.8737" stroke="#020204" stroke-width="4" stroke-linecap="round" stroke-linejoin="round"/>
</svg>
