<svg width="122" height="28" viewBox="0 0 122 28" fill="none" xmlns="http://www.w3.org/2000/svg">
<path d="M13.9405 10.0156L22.6788 7.81055L10.7237 25.5537L15.3907 12.3535L10.3458 13.7783L13.0538 6.49316C10.5368 6.28361 5.25843 7.03935 4.22078 11.8379C3.79871 14.3478 4.67881 19.122 11.9034 19.2617L10.7247 23.0215C8.20992 23.0419 2.66601 21.7335 0.614333 16.292C-0.600058 13.5633 -0.643499 6.93698 6.50984 3.76855C7.46285 3.20375 12.0601 2.48827 16.9141 2.48828L13.9405 10.0156ZM25.3009 2.44629C28.6759 2.44629 34.1977 7.32196 28.4239 11.8604C31.7104 13.2452 33.9122 20.4998 25.9288 22.792C25.3275 22.9646 24.6979 23.0234 24.0723 23.0234H13.7169L16.1417 19.2666H24.1749C26.3078 19.2662 28.5832 15.8409 25.5352 14.1738C24.9217 13.8383 24.2042 13.7646 23.505 13.7646H19.9327L22.2598 10.0361H24.7843C24.8816 10.0361 24.98 10.0307 25.0743 10.0068C26.2133 9.71817 27.4867 8.01693 25.6143 6.77637C25.3011 6.56884 24.9208 6.49515 24.545 6.49512H17.7091L19.5509 2.44629H25.3009Z" fill="url(#paint0_linear_5077_29200)"/>
<path d="M121.825 15.2327C121.825 15.5657 121.802 15.8665 121.757 16.1351H114.572C114.629 16.844 114.907 17.4134 115.408 17.8431C115.909 18.2728 116.523 18.4876 117.251 18.4876C118.298 18.4876 119.037 18.074 119.47 17.2469H121.569C121.284 18.0633 120.767 18.7347 120.016 19.2611C119.276 19.7767 118.355 20.0345 117.251 20.0345C116.352 20.0345 115.544 19.8465 114.828 19.4705C114.122 19.0838 113.565 18.5467 113.155 17.8592C112.757 17.1609 112.558 16.3553 112.558 15.4422C112.558 14.5291 112.751 13.7288 113.138 13.0413C113.536 12.343 114.088 11.8059 114.794 11.4299C115.51 11.054 116.329 10.866 117.251 10.866C118.139 10.866 118.929 11.0486 119.623 11.4138C120.317 11.7791 120.858 12.2947 121.245 12.9607C121.631 13.616 121.825 14.3733 121.825 15.2327ZM119.794 14.6526C119.783 13.9759 119.527 13.4334 119.026 13.0252C118.525 12.617 117.905 12.4129 117.166 12.4129C116.494 12.4129 115.92 12.617 115.442 13.0252C114.964 13.4226 114.68 13.9651 114.589 14.6526H119.794Z" fill="#171717"/>
<path d="M106.897 18.3909H111.164V19.8894H104.644V18.3909L108.928 12.5095H104.644V11.0109H111.164V12.5095L106.897 18.3909Z" fill="#171717"/>
<path d="M92.9587 15.41C92.9587 14.5183 93.1522 13.7288 93.539 13.0413C93.9372 12.3538 94.4719 11.822 95.1432 11.446C95.8259 11.0593 96.5768 10.866 97.3959 10.866C98.1355 10.866 98.7783 11.0056 99.3244 11.2849C99.8819 11.5535 100.326 11.8919 100.656 12.3001V11.011H102.618V19.8895H100.656V18.5682C100.326 18.9871 99.8762 19.3363 99.3074 19.6156C98.7385 19.8949 98.09 20.0345 97.3618 20.0345C96.554 20.0345 95.8145 19.8411 95.1432 19.4544C94.4719 19.057 93.9372 18.5091 93.539 17.8109C93.1522 17.1019 92.9587 16.3016 92.9587 15.41ZM100.656 15.4422C100.656 14.8299 100.519 14.2981 100.246 13.847C99.9843 13.3958 99.6373 13.052 99.205 12.8157C98.7726 12.5794 98.3061 12.4612 97.8055 12.4612C97.3049 12.4612 96.8385 12.5794 96.4061 12.8157C95.9738 13.0413 95.6211 13.3797 95.348 13.8308C95.0863 14.2713 94.9555 14.7976 94.9555 15.41C94.9555 16.0223 95.0863 16.5594 95.348 17.0213C95.6211 17.4832 95.9738 17.8377 96.4061 18.0848C96.8498 18.3211 97.3163 18.4393 97.8055 18.4393C98.3061 18.4393 98.7726 18.3211 99.205 18.0848C99.6373 17.8485 99.9843 17.5047 100.246 17.0535C100.519 16.5916 100.656 16.0545 100.656 15.4422Z" fill="#171717"/>
<path d="M91.0527 7.96552V19.8895H89.1072V7.96552H91.0527Z" fill="#171717"/>
<path d="M84.7063 14.137C85.3434 14.2444 85.8839 14.5613 86.3276 15.0876C86.7713 15.614 86.9932 16.2102 86.9932 16.8762C86.9932 17.4456 86.8339 17.9612 86.5153 18.4231C86.2081 18.8743 85.7587 19.2342 85.1671 19.5027C84.5754 19.7605 83.8871 19.8894 83.1021 19.8894H78.3577V8.69061H82.8802C83.688 8.69061 84.382 8.81952 84.9623 9.07734C85.5425 9.33515 85.9806 9.68428 86.2764 10.1247C86.5722 10.5544 86.7201 11.0378 86.7201 11.5749C86.7201 12.2195 86.5381 12.7566 86.174 13.1863C85.8099 13.616 85.3207 13.9328 84.7063 14.137ZM80.3032 13.3957H82.7095C83.3467 13.3957 83.8416 13.2615 84.1943 12.9929C84.5584 12.7136 84.7404 12.3161 84.7404 11.8005C84.7404 11.2956 84.5584 10.9035 84.1943 10.6242C83.8416 10.3342 83.3467 10.1892 82.7095 10.1892H80.3032V13.3957ZM82.9314 18.3909C83.5913 18.3909 84.109 18.2405 84.4844 17.9397C84.8599 17.6389 85.0476 17.22 85.0476 16.6829C85.0476 16.135 84.8485 15.7 84.4503 15.3777C84.0521 15.0554 83.523 14.8943 82.8631 14.8943H80.3032V18.3909H82.9314Z" fill="#171717"/>
<path d="M66.1428 15.4099C66.1428 14.5183 66.3362 13.7288 66.7231 13.0412C67.1213 12.3537 67.656 11.822 68.3273 11.446C69.0099 11.0593 69.7665 10.8659 70.5971 10.8659C71.2115 10.8659 71.8145 10.9948 72.4061 11.2527C73.0091 11.4997 73.487 11.8327 73.8397 12.2517V7.96552H75.8023V19.8895H73.8397V18.552C73.5211 18.9817 73.0774 19.3362 72.5085 19.6155C71.951 19.8948 71.3082 20.0345 70.58 20.0345C69.7609 20.0345 69.0099 19.8411 68.3273 19.4544C67.656 19.0569 67.1213 18.5091 66.7231 17.8108C66.3362 17.1018 66.1428 16.3015 66.1428 15.4099ZM73.8397 15.4421C73.8397 14.8298 73.7031 14.2981 73.4301 13.8469C73.1684 13.3957 72.8214 13.052 72.389 12.8157C71.9567 12.5793 71.4902 12.4612 70.9896 12.4612C70.489 12.4612 70.0225 12.5793 69.5902 12.8157C69.1578 13.0412 68.8051 13.3796 68.5321 13.8308C68.2704 14.2712 68.1396 14.7976 68.1396 15.4099C68.1396 16.0222 68.2704 16.5593 68.5321 17.0213C68.8051 17.4832 69.1578 17.8377 69.5902 18.0847C70.0339 18.3211 70.5004 18.4392 70.9896 18.4392C71.4902 18.4392 71.9567 18.3211 72.389 18.0847C72.8214 17.8484 73.1684 17.5047 73.4301 17.0535C73.7031 16.5916 73.8397 16.0545 73.8397 15.4421Z" fill="#171717"/>
<path d="M64.8768 15.2327C64.8768 15.5657 64.854 15.8665 64.8085 16.1351H57.6237C57.6806 16.844 57.9593 17.4134 58.4599 17.8431C58.9605 18.2728 59.5749 18.4876 60.3031 18.4876C61.3498 18.4876 62.0893 18.074 62.5217 17.2469H64.6208C64.3364 18.0633 63.8187 18.7347 63.0678 19.2611C62.3283 19.7767 61.4067 20.0345 60.3031 20.0345C59.4042 20.0345 58.5964 19.8465 57.8797 19.4705C57.1743 19.0838 56.6168 18.5467 56.2072 17.8592C55.809 17.1609 55.6099 16.3553 55.6099 15.4422C55.6099 14.5291 55.8033 13.7288 56.1901 13.0413C56.5883 12.343 57.1401 11.8059 57.8455 11.4299C58.5623 11.054 59.3815 10.866 60.3031 10.866C61.1905 10.866 61.9812 11.0486 62.6753 11.4138C63.3693 11.7791 63.9097 12.2947 64.2966 12.9607C64.6834 13.616 64.8768 14.3733 64.8768 15.2327ZM62.8459 14.6526C62.8345 13.9759 62.5786 13.4334 62.0779 13.0252C61.5773 12.617 60.9573 12.4129 60.2177 12.4129C59.5465 12.4129 58.9719 12.617 58.4941 13.0252C58.0162 13.4226 57.7318 13.9651 57.6407 14.6526H62.8459Z" fill="#171717"/>
<path d="M51.6543 12.3001C51.9387 11.8489 52.3142 11.4998 52.7807 11.2527C53.2585 10.9949 53.8217 10.866 54.4702 10.866V12.7674H53.9753C53.213 12.7674 52.6327 12.95 52.2345 13.3152C51.8477 13.6804 51.6543 14.3142 51.6543 15.2166V19.8895H49.7087V11.011H51.6543V12.3001Z" fill="#171717"/>
<path d="M35.8608 14.2659C35.8608 13.1702 36.1282 12.1873 36.663 11.3172C37.2091 10.447 37.9429 9.77028 38.8645 9.28687C39.7974 8.79273 40.8157 8.54565 41.9193 8.54565C43.1822 8.54565 44.3029 8.84107 45.2814 9.43189C46.2712 10.012 46.988 10.8391 47.4317 11.9134H45.0936C44.7865 11.3225 44.3598 10.8821 43.8137 10.5921C43.2676 10.302 42.6361 10.157 41.9193 10.157C41.1343 10.157 40.4346 10.3235 39.8202 10.6565C39.2058 10.9895 38.7223 11.4676 38.3696 12.0906C38.0282 12.7137 37.8576 13.4388 37.8576 14.2659C37.8576 15.0931 38.0282 15.8182 38.3696 16.4412C38.7223 17.0643 39.2058 17.5477 39.8202 17.8914C40.4346 18.2245 41.1343 18.391 41.9193 18.391C42.6361 18.391 43.2676 18.2459 43.8137 17.9559C44.3598 17.6659 44.7865 17.2254 45.0936 16.6346H47.4317C46.988 17.7088 46.2712 18.536 45.2814 19.1161C44.3029 19.6961 43.1822 19.9862 41.9193 19.9862C40.8043 19.9862 39.7861 19.7445 38.8645 19.2611C37.9429 18.7669 37.2091 18.0848 36.663 17.2147C36.1282 16.3446 35.8608 15.3616 35.8608 14.2659Z" fill="#171717"/>
<defs>
<linearGradient id="paint0_linear_5077_29200" x1="-1.42742" y1="12.6136" x2="32.2597" y2="12.6136" gradientUnits="userSpaceOnUse">
<stop stop-color="#0040C1"/>
<stop offset="1" stop-color="#6475F6"/>
</linearGradient>
</defs>
</svg>
