<svg width="70" height="70" viewBox="0 0 70 70" fill="none" xmlns="http://www.w3.org/2000/svg">
<circle cx="35" cy="35" r="32" fill="#1D1B27" stroke="white" stroke-width="6"/>
<g clip-path="url(#clip0_434_8301)">
<path d="M29.7037 28.2924L34.9967 33.5844L40.2897 28.2924C40.4783 28.1103 40.7309 28.0095 40.9931 28.0118C41.2553 28.014 41.5061 28.1192 41.6915 28.3046C41.8769 28.49 41.9821 28.7408 41.9843 29.003C41.9866 29.2652 41.8858 29.5178 41.7037 29.7064L36.4117 34.9994L41.7037 40.2924C41.8858 40.481 41.9866 40.7336 41.9843 40.9958C41.9821 41.258 41.8769 41.5088 41.6915 41.6942C41.5061 41.8797 41.2553 41.9848 40.9931 41.9871C40.7309 41.9894 40.4783 41.8886 40.2897 41.7064L34.9967 36.4144L29.7037 41.7064C29.6114 41.8019 29.5011 41.8781 29.3791 41.9305C29.2571 41.9829 29.1258 42.0105 28.9931 42.0117C28.8603 42.0128 28.7286 41.9875 28.6057 41.9373C28.4828 41.887 28.3712 41.8127 28.2773 41.7188C28.1834 41.6249 28.1091 41.5133 28.0588 41.3904C28.0086 41.2675 27.9833 41.1358 27.9844 41.003C27.9856 40.8703 28.0132 40.739 28.0656 40.617C28.118 40.495 28.1942 40.3847 28.2897 40.2924L33.5817 34.9994L28.2897 29.7064C28.1075 29.5178 28.0067 29.2652 28.009 29.003C28.0113 28.7408 28.1164 28.49 28.3018 28.3046C28.4873 28.1192 28.7381 28.014 29.0003 28.0118C29.2625 28.0095 29.5151 28.1103 29.7037 28.2924Z" fill="white"/>
</g>
<defs>
<clipPath id="clip0_434_8301">
<rect width="24" height="24" fill="white" transform="translate(23 23)"/>
</clipPath>
</defs>
</svg>
