<svg width="50" height="50" viewBox="0 0 50 50" fill="none" xmlns="http://www.w3.org/2000/svg">
<g clip-path="url(#clip0_5161_25053)">
<path d="M41.5673 41.5723C50.7202 32.4194 50.7202 17.5796 41.5673 8.4267C32.4144 -0.726216 17.5746 -0.726217 8.42169 8.4267C-0.731221 17.5796 -0.731221 32.4194 8.42169 41.5723C17.5746 50.7252 32.4144 50.7252 41.5673 41.5723Z" fill="#CE3A3A"/>
<path fill-rule="evenodd" clip-rule="evenodd" d="M48.0993 28.9758C46.4316 38.7336 38.7327 46.4321 28.9751 48.0999L16.3579 35.4826C13.3386 32.9909 11.4143 29.2201 11.4143 24.9998C11.4143 17.4969 17.4963 11.4149 24.9992 11.4149C29.2195 11.4149 32.9903 13.3393 35.482 16.3585L48.0993 28.9758Z" fill="#9C1717"/>
<g clip-path="url(#clip1_5161_25053)">
<path d="M24.9995 12C32.1792 12 37.9995 17.8203 37.9995 25C37.9995 32.1797 32.1792 38 24.9995 38C17.8198 38 11.9995 32.1797 11.9995 25C11.9995 17.8203 17.8198 12 24.9995 12ZM32.1802 17.8193C31.8042 17.4434 31.1949 17.4435 30.8188 17.8193L24.9995 23.6387L19.1802 17.8193C18.8042 17.4434 18.1949 17.4435 17.8188 17.8193C17.4428 18.1954 17.4428 18.8046 17.8188 19.1807L23.6382 25L17.8188 30.8193C17.4428 31.1954 17.4428 31.8046 17.8188 32.1807C18.1949 32.5565 18.8042 32.5566 19.1802 32.1807L24.9995 26.3613L30.8188 32.1807C31.1949 32.5565 31.8042 32.5566 32.1802 32.1807C32.5559 31.8047 32.5559 31.1953 32.1802 30.8193L26.3608 25L32.1802 19.1807C32.5559 18.8047 32.5559 18.1953 32.1802 17.8193Z" fill="white"/>
</g>
</g>
<defs>
<clipPath id="clip0_5161_25053">
<rect width="50" height="50" fill="white"/>
</clipPath>
<clipPath id="clip1_5161_25053">
<rect x="11.9995" y="12" width="26" height="26" rx="13" fill="white"/>
</clipPath>
</defs>
</svg>
