<svg width="20" height="20" viewBox="0 0 20 20" fill="none" xmlns="http://www.w3.org/2000/svg">
<path d="M5.82812 7.08398L8.2798 8.53351C9.70914 9.37859 10.2804 9.37859 11.7098 8.53351L14.1615 7.08398" stroke="#625F6E" stroke-width="1.4" stroke-linecap="round" stroke-linejoin="round"/>
<path d="M1.6772 11.23C1.73168 13.7846 1.75892 15.0619 2.70153 16.0081C3.64413 16.9543 4.95601 16.9873 7.57975 17.0532C9.19682 17.0938 10.798 17.0938 12.415 17.0532C15.0388 16.9873 16.3507 16.9543 17.2933 16.0081C18.2359 15.0619 18.2631 13.7846 18.3176 11.23C18.3351 10.4086 18.3351 9.59206 18.3176 8.77065C18.2631 6.21604 18.2359 4.93874 17.2933 3.99254C16.3507 3.04635 15.0388 3.01339 12.415 2.94747C10.798 2.90684 9.19682 2.90683 7.57975 2.94746C4.956 3.01338 3.64413 3.04634 2.70152 3.99253C1.75892 4.93872 1.73168 6.21603 1.6772 8.77064C1.65968 9.59205 1.65968 10.4086 1.6772 11.23Z" stroke="#625F6E" stroke-width="1.4" stroke-linejoin="round"/>
</svg>
