<svg width="32" height="20" viewBox="0 0 32 20" fill="none" xmlns="http://www.w3.org/2000/svg">
<rect width="32" height="20" rx="7" fill="#625F6E" fill-opacity="0.08"/>
<rect x="0.5" y="0.5" width="31" height="19" rx="6.5" stroke="#625F6E" stroke-opacity="0.1"/>
<path d="M8.856 15C8.20267 15 7.68 14.8087 7.288 14.426C6.90533 14.0433 6.714 13.53 6.714 12.886C6.714 12.2047 6.91467 11.6773 7.316 11.304C7.72667 10.9213 8.32867 10.73 9.122 10.73H9.948V9.19H9.122C8.32867 9.19 7.72667 9.00333 7.316 8.63C6.91467 8.24733 6.714 7.71533 6.714 7.034C6.714 6.39 6.90533 5.87667 7.288 5.494C7.68 5.11133 8.20267 4.92 8.856 4.92C9.37867 4.92 9.78933 5.018 10.088 5.214C10.396 5.41 10.6107 5.67133 10.732 5.998C10.8627 6.32467 10.928 6.684 10.928 7.076V8.238H12.468V7.076C12.468 6.684 12.5287 6.32467 12.65 5.998C12.7807 5.67133 12.9953 5.41 13.294 5.214C13.602 5.018 14.0173 4.92 14.54 4.92C15.1933 4.92 15.7113 5.11133 16.094 5.494C16.486 5.87667 16.682 6.39 16.682 7.034C16.682 7.71533 16.4813 8.24733 16.08 8.63C15.6787 9.00333 15.0767 9.19 14.274 9.19H13.448V10.73H14.274C15.0767 10.73 15.6787 10.9213 16.08 11.304C16.4813 11.6773 16.682 12.2047 16.682 12.886C16.682 13.53 16.486 14.0433 16.094 14.426C15.7113 14.8087 15.1933 15 14.54 15C14.0173 15 13.602 14.902 13.294 14.706C12.9953 14.51 12.7807 14.2487 12.65 13.922C12.5287 13.5953 12.468 13.236 12.468 12.844V11.682H10.928V12.844C10.928 13.236 10.8627 13.5953 10.732 13.922C10.6107 14.2487 10.396 14.51 10.088 14.706C9.78933 14.902 9.37867 15 8.856 15ZM13.448 7.048V8.238H14.274C14.7687 8.238 15.128 8.14 15.352 7.944C15.576 7.73867 15.688 7.43533 15.688 7.034C15.688 6.62333 15.576 6.32933 15.352 6.152C15.1373 5.97467 14.8667 5.886 14.54 5.886C14.176 5.886 13.9007 5.99333 13.714 6.208C13.5367 6.41333 13.448 6.69333 13.448 7.048ZM9.122 8.238H9.948V7.048C9.948 6.69333 9.85467 6.41333 9.668 6.208C9.49067 5.99333 9.22 5.886 8.856 5.886C8.52933 5.886 8.254 5.97467 8.03 6.152C7.81533 6.32933 7.708 6.62333 7.708 7.034C7.708 7.43533 7.82 7.73867 8.044 7.944C8.268 8.14 8.62733 8.238 9.122 8.238ZM10.928 10.73H12.468V9.19H10.928V10.73ZM8.856 14.034C9.22 14.034 9.49067 13.9313 9.668 13.726C9.85467 13.5113 9.948 13.2267 9.948 12.872V11.682H9.122C8.62733 11.682 8.268 11.7847 8.044 11.99C7.82 12.186 7.708 12.4847 7.708 12.886C7.708 13.2967 7.81533 13.5907 8.03 13.768C8.254 13.9453 8.52933 14.034 8.856 14.034ZM13.448 12.872C13.448 13.2267 13.5367 13.5113 13.714 13.726C13.9007 13.9313 14.176 14.034 14.54 14.034C14.8667 14.034 15.1373 13.9453 15.352 13.768C15.576 13.5907 15.688 13.2967 15.688 12.886C15.688 12.4847 15.576 12.186 15.352 11.99C15.128 11.7847 14.7687 11.682 14.274 11.682H13.448V12.872ZM22.7741 15V6.068L20.8771 7.209V6.054L22.7741 4.92H23.8171V15H22.7741Z" fill="#625F6E"/>
</svg>
