<svg width="50" height="50" viewBox="0 0 50 50" fill="none" xmlns="http://www.w3.org/2000/svg">
<g clip-path="url(#clip0_360_5963)">
<path d="M41.5661 41.5723C50.719 32.4194 50.719 17.5796 41.5661 8.4267C32.4132 -0.726216 17.5734 -0.726217 8.42047 8.4267C-0.732442 17.5796 -0.732442 32.4194 8.42047 41.5723C17.5734 50.7252 32.4132 50.7252 41.5661 41.5723Z" fill="#CEAC3A"/>
<path fill-rule="evenodd" clip-rule="evenodd" d="M48.099 28.9759C46.4314 38.7337 38.7324 46.4322 28.9749 48.1L16.3576 35.4827C13.3384 32.991 11.4141 29.2202 11.4141 24.9999C11.4141 17.4971 17.4961 11.415 24.9989 11.415C29.2192 11.415 32.99 13.3395 35.4817 16.3586L48.099 28.9759Z" fill="#9C6517"/>
<g clip-path="url(#clip1_360_5963)">
<path d="M24.9961 12C32.1758 12 37.9961 17.8203 37.9961 25C37.9961 32.1797 32.1758 38 24.9961 38C17.8164 38 11.9961 32.1797 11.9961 25C11.9961 17.8203 17.8164 12 24.9961 12ZM23.959 18C23.4274 18 22.9961 18.4304 22.9961 18.9629V25.2227C22.9959 25.349 23.021 25.4741 23.0693 25.5908C23.1178 25.7076 23.1887 25.8141 23.2783 25.9033L28.0928 30.7178C28.1821 30.8073 28.2885 30.8783 28.4053 30.9268C28.522 30.9751 28.6471 31 28.7734 31C28.8999 31.0001 29.0257 30.9752 29.1426 30.9268C29.2594 30.8783 29.3658 30.8073 29.4551 30.7178C29.8312 30.3414 29.8311 29.7331 29.4551 29.3564L24.9219 24.8232V18.9629C24.9219 18.4304 24.4906 18 23.959 18Z" fill="white"/>
</g>
</g>
<defs>
<clipPath id="clip0_360_5963">
<rect width="50" height="50" fill="white"/>
</clipPath>
<clipPath id="clip1_360_5963">
<rect x="11.9961" y="12" width="26" height="26" rx="13" fill="white"/>
</clipPath>
</defs>
</svg>
