<svg width="100" height="100" viewBox="0 0 100 100" fill="none" xmlns="http://www.w3.org/2000/svg">
<path d="M100 50C100 22.3858 77.6142 -3.39263e-06 50 -2.18557e-06C22.3858 -9.78513e-07 -3.39263e-06 22.3858 -2.18557e-06 50C-9.78513e-07 77.6142 22.3858 100 50 100C77.6142 100 100 77.6142 100 50Z" fill="#DE8806"/>
<path fill-rule="evenodd" clip-rule="evenodd" d="M98.502 61.5C94.002 81.5 78.002 94.4999 61.002 98.9999L34.8379 73.2371C37.5006 70.0006 39.502 61.4665 44.502 54.5001C56.002 49 15.002 22.4999 58.502 29.5012C60.502 27.5008 67.935 29.7775 72.8933 35.7031L98.502 61.5Z" fill="#A66B12"/>
<g clip-path="url(#clip0_5292_3180)">
<path d="M32.0488 28.5437C32.0488 27.3072 33.0396 26.3125 34.2711 26.3125H65.3822C66.6136 26.3125 67.6044 27.3072 67.6044 28.5437C67.6044 29.7801 66.6136 30.7749 65.3822 30.7749H64.6414V32.5412C64.6414 36.2877 63.1599 39.8855 60.5211 42.5351L52.9655 50.1118L60.5118 57.6885C63.1599 60.338 64.6414 63.9358 64.6414 67.6824V69.4487H65.3822C66.6136 69.4487 67.6044 70.4434 67.6044 71.6799C67.6044 72.9163 66.6136 73.9111 65.3822 73.9111H34.2711C33.0396 73.9111 32.0488 72.9163 32.0488 71.6799C32.0488 70.4434 33.0396 69.4487 34.2711 69.4487H35.0118V67.6824C35.0118 63.9358 36.4933 60.338 39.1322 57.6885L46.6877 50.1118L39.1322 42.5351C36.4933 39.8855 35.0118 36.2877 35.0118 32.5412V30.7749H34.2711C33.0396 30.7749 32.0488 29.7801 32.0488 28.5437ZM42.2803 60.8493C41.9192 61.2119 41.5859 61.6024 41.2896 62.0114H58.3636C58.0673 61.6024 57.734 61.2119 57.3729 60.8493L49.8266 53.2633L42.2803 60.8401V60.8493ZM58.3636 38.2121C59.5488 36.5759 60.197 34.5865 60.197 32.5412V30.7749H39.4562V32.5412C39.4562 34.5958 40.1044 36.5759 41.2896 38.2121H58.3636Z" fill="white"/>
</g>
<defs>
<clipPath id="clip0_5292_3180">
<rect width="35.5556" height="47.5986" fill="white" transform="translate(32.0508 26.3125)"/>
</clipPath>
</defs>
</svg>
