<svg width="100" height="100" viewBox="0 0 100 100" fill="none" xmlns="http://www.w3.org/2000/svg">
<path d="M100 50C100 22.3858 77.6142 -3.39263e-06 50 -2.18557e-06C22.3858 -9.78513e-07 -3.39263e-06 22.3858 -2.18557e-06 50C-9.78513e-07 77.6142 22.3858 100 50 100C77.6142 100 100 77.6142 100 50Z" fill="#EC221F"/>
<path fill-rule="evenodd" clip-rule="evenodd" d="M98.5033 61.5C94.0033 81.5 78.0033 94.5 61.0033 99L34.838 71.5C37.5007 68.2634 29.8376 45.9663 34.8376 39C45.8376 31.5 61.5033 40.0002 63.5033 30.0006C65.5033 28.0002 67.9363 29.7776 72.8946 35.7031L98.5033 61.5Z" fill="#AE0300"/>
<path d="M49.8281 23.6133C35.2001 23.6133 23.3281 35.4853 23.3281 50.1133C23.3281 64.7413 35.2001 76.6133 49.8281 76.6133C64.4561 76.6133 76.3281 64.7413 76.3281 50.1133C76.3281 35.4853 64.4561 23.6133 49.8281 23.6133ZM49.8281 52.7633C48.3706 52.7633 47.1781 51.5708 47.1781 50.1133V39.5133C47.1781 38.0558 48.3706 36.8633 49.8281 36.8633C51.2856 36.8633 52.4781 38.0558 52.4781 39.5133V50.1133C52.4781 51.5708 51.2856 52.7633 49.8281 52.7633ZM52.4781 63.3633H47.1781V58.0633H52.4781V63.3633Z" fill="white"/>
</svg>
