<svg width="20" height="20" viewBox="0 0 20 20" fill="none" xmlns="http://www.w3.org/2000/svg">
<path d="M9.68809 19.3505C15.0232 19.3505 19.375 15.0041 19.375 9.67465C19.375 4.34516 15.0232 0 9.68809 0C4.35301 0 0 4.34633 0 9.67465C0 15.003 4.35184 19.3505 9.68809 19.3505Z" fill="#FB8500"/>
<path d="M9.68809 0C4.35184 0 0 4.34633 0 9.67465C0 15.003 4.35184 19.3505 9.68809 19.3505C15.0243 19.3505 19.375 15.0041 19.375 9.67465C19.375 4.34516 15.0231 0 9.68809 0ZM9.68809 17.0611C5.61434 17.0611 2.29227 13.7432 2.29227 9.67461C2.29227 5.60602 5.61434 2.28816 9.68809 2.28816C13.7618 2.28816 17.0839 5.60719 17.0839 9.67461C17.0839 13.742 13.7607 17.0611 9.68809 17.0611Z" fill="#FFB703"/>
<path d="M14.5409 8.06828C14.5277 8.02768 14.5037 7.99145 14.4714 7.9635C14.4392 7.93556 14.3999 7.91695 14.3578 7.90969L11.3286 7.38773L9.89543 4.6716C9.87552 4.63388 9.84569 4.6023 9.80916 4.58028C9.77263 4.55826 9.73078 4.54662 9.68812 4.54662C9.64547 4.54662 9.60362 4.55826 9.56709 4.58028C9.53056 4.6023 9.50073 4.63388 9.48082 4.6716L8.04758 7.38773L5.0184 7.90969C4.97633 7.91693 4.93703 7.93553 4.90476 7.96348C4.87248 7.99143 4.84846 8.02766 4.83527 8.06826C4.82208 8.10887 4.82024 8.1523 4.82993 8.19388C4.83962 8.23545 4.86049 8.27359 4.89027 8.30418L7.03336 10.505L6.59484 13.5436C6.58873 13.5858 6.59427 13.6289 6.61086 13.6682C6.62745 13.7076 6.65446 13.7416 6.68898 13.7667C6.7235 13.7918 6.76421 13.807 6.80673 13.8106C6.84925 13.8142 6.89195 13.8062 6.93023 13.7873L9.68809 12.4309L12.4459 13.7873C12.4842 13.8062 12.5269 13.8142 12.5694 13.8106C12.6119 13.8069 12.6526 13.7917 12.6872 13.7666C12.7217 13.7415 12.7487 13.7075 12.7653 13.6682C12.7819 13.6289 12.7874 13.5858 12.7813 13.5436L12.3428 10.505L14.4859 8.30414C14.5157 8.27356 14.5365 8.23542 14.5462 8.19385C14.5559 8.15227 14.5541 8.10884 14.5409 8.06824L14.5409 8.06828ZM2.84348 2.83871L4.46277 4.45594C5.8025 3.11789 7.65133 2.2882 9.68812 2.2882V0C7.02027 0 4.59844 1.08637 2.84348 2.83871ZM16.5327 16.5106L14.9134 14.8934C13.5735 16.2315 11.7245 17.0611 9.68805 17.0611V19.3505C12.3558 19.3505 14.7778 18.2637 16.5327 16.5106L16.5327 16.5106ZM16.5322 2.83922L14.9132 4.45617C16.2531 5.79434 17.0839 7.64094 17.0839 9.67465H19.375C19.375 7.01051 18.287 4.59184 16.5322 2.83922ZM2.84293 16.5111L4.4625 14.8936C3.12277 13.5555 2.29223 11.7089 2.29223 9.67461H0C0 12.3393 1.08797 14.7583 2.84293 16.5111Z" fill="#FCD227"/>
</svg>
