<svg width="50" height="50" viewBox="0 0 50 50" fill="none" xmlns="http://www.w3.org/2000/svg">
<g clip-path="url(#clip0_261_9165)">
<path d="M41.5661 41.5728C50.719 32.4199 50.719 17.5801 41.5661 8.42719C32.4132 -0.725728 17.5734 -0.725729 8.42047 8.42719C-0.732442 17.5801 -0.732442 32.4199 8.42047 41.5728C17.5734 50.7257 32.4132 50.7257 41.5661 41.5728Z" fill="#46CC6B"/>
<path fill-rule="evenodd" clip-rule="evenodd" d="M48.099 28.9764C46.4314 38.7342 38.7324 46.4327 28.9749 48.1005L16.3576 35.4832C13.3384 32.9915 11.4141 29.2207 11.4141 25.0004C11.4141 17.4976 17.4961 11.4155 24.9989 11.4155C29.2192 11.4155 32.99 13.3399 35.4817 16.3591L48.099 28.9764Z" fill="#179C5F"/>
<path fill-rule="evenodd" clip-rule="evenodd" d="M18.6401 25.807L22.5091 29.36C23.0734 29.8795 23.947 29.8519 24.4777 29.3046L31.38 22.6961C31.9414 22.1563 31.9584 21.2631 31.4184 20.7014C30.8783 20.1405 29.9856 20.1229 29.4242 20.6628L23.4455 26.3871L20.5515 23.7296C19.9781 23.2021 19.0849 23.2391 18.557 23.813C18.0293 24.3863 18.0665 25.279 18.6401 25.807ZM24.9989 11.4155C32.5018 11.4155 38.5838 17.4976 38.5838 25.0004C38.5838 32.5032 32.5018 38.5853 24.9989 38.5853C17.4961 38.5853 11.4141 32.5032 11.4141 25.0004C11.4141 17.4976 17.4961 11.4155 24.9989 11.4155Z" fill="white"/>
</g>
<defs>
<clipPath id="clip0_261_9165">
<rect width="50" height="50" fill="white"/>
</clipPath>
</defs>
</svg>
