<svg width="24" height="24" viewBox="0 0 24 24" fill="none" xmlns="http://www.w3.org/2000/svg">
<path d="M16.7303 2.06641H7.27028C6.6429 2.10409 6.05573 2.3878 5.63632 2.85589C5.2169 3.32399 4.99912 3.93867 5.03028 4.56641V19.4364C4.99912 20.0641 5.2169 20.6788 5.63632 21.1469C6.05573 21.615 6.6429 21.8987 7.27028 21.9364H16.7303C17.3577 21.8987 17.9448 21.615 18.3642 21.1469C18.7837 20.6788 19.0014 20.0641 18.9703 19.4364V4.56641C19.0014 3.93867 18.7837 3.32399 18.3642 2.85589C17.9448 2.3878 17.3577 2.10409 16.7303 2.06641ZM17.9703 19.4364C18.0011 19.799 17.8884 20.1592 17.6566 20.4396C17.4248 20.7201 17.0922 20.8984 16.7303 20.9364H7.27028C6.90839 20.8984 6.57581 20.7201 6.34397 20.4396C6.11212 20.1592 5.9995 19.799 6.03028 19.4364V4.56641C5.9995 4.20383 6.11212 3.84364 6.34397 3.56319C6.57581 3.28273 6.90839 3.10437 7.27028 3.06641H8.80028V3.57641C8.80028 3.84162 8.90564 4.09598 9.09317 4.28351C9.28071 4.47105 9.53506 4.57641 9.80028 4.57641H14.2003C14.4655 4.57641 14.7199 4.47105 14.9074 4.28351C15.0949 4.09598 15.2003 3.84162 15.2003 3.57641V3.06641H16.7303C17.0922 3.10437 17.4248 3.28273 17.6566 3.56319C17.8884 3.84364 18.0011 4.20383 17.9703 4.56641V19.4364Z" fill="#CACDD2"/>
<path d="M10 18.9336H14C14.1326 18.9336 14.2598 18.8809 14.3536 18.7871C14.4473 18.6934 14.5 18.5662 14.5 18.4336C14.5 18.301 14.4473 18.1738 14.3536 18.08C14.2598 17.9863 14.1326 17.9336 14 17.9336H10C9.86739 17.9336 9.74021 17.9863 9.64645 18.08C9.55268 18.1738 9.5 18.301 9.5 18.4336C9.5 18.5662 9.55268 18.6934 9.64645 18.7871C9.74021 18.8809 9.86739 18.9336 10 18.9336Z" fill="#CACDD2"/>
</svg>
