<svg width="100" height="100" viewBox="0 0 100 100" fill="none" xmlns="http://www.w3.org/2000/svg">
<g clip-path="url(#clip0_5292_3206)">
<path d="M83.1361 83.1456C101.442 64.8398 101.442 35.1602 83.1361 16.8544C64.8303 -1.45146 35.1507 -1.45146 16.8448 16.8544C-1.46098 35.1602 -1.46098 64.8398 16.8448 83.1456C35.1507 101.451 64.8303 101.451 83.1361 83.1456Z" fill="#46CC6B"/>
<path fill-rule="evenodd" clip-rule="evenodd" d="M96.202 57.9498C92.8666 77.4654 77.4688 92.8625 57.9537 96.1981L32.7191 70.9635C26.6807 65.9801 22.832 58.4385 22.832 49.9979C22.832 34.9922 34.9961 22.8281 50.0018 22.8281C58.4424 22.8281 65.984 26.677 70.9674 32.7152L96.202 57.9498Z" fill="#179C5F"/>
<path fill-rule="evenodd" clip-rule="evenodd" d="M37.2822 51.615L45.0201 58.7209C46.1488 59.76 47.8959 59.7047 48.9574 58.6102L62.7619 45.3932C63.8848 44.3135 63.9188 42.5271 62.8387 41.4037C61.7586 40.282 59.9732 40.2469 58.8504 41.3266L46.893 52.7752L41.1049 47.4602C39.9582 46.4051 38.1717 46.4791 37.116 47.627C36.0605 48.7736 36.135 50.559 37.2822 51.615ZM49.9998 22.832C65.0055 22.832 77.1695 34.9961 77.1695 50.0018C77.1695 65.0074 65.0055 77.1715 49.9998 77.1715C34.9941 77.1715 22.8301 65.0074 22.8301 50.0018C22.8301 34.9961 34.9941 22.832 49.9998 22.832Z" fill="white"/>
</g>
<defs>
<clipPath id="clip0_5292_3206">
<rect width="100" height="100" fill="white"/>
</clipPath>
</defs>
</svg>
