<svg width="24" height="24" viewBox="0 0 24 24" fill="none" xmlns="http://www.w3.org/2000/svg">
<path d="M12.0008 17.4C12.9463 17.4 13.8826 17.2138 14.7561 16.8519C15.6296 16.4901 16.4234 15.9598 17.092 15.2912C17.7605 14.6226 18.2909 13.8289 18.6527 12.9553C19.0145 12.0818 19.2008 11.1455 19.2008 10.2C19.2008 9.25448 19.0145 8.31822 18.6527 7.44468C18.2909 6.57113 17.7605 5.77741 17.092 5.10883C16.4234 4.44025 15.6296 3.9099 14.7561 3.54807C13.8826 3.18623 12.9463 3 12.0008 3C10.0912 3 8.25987 3.75857 6.90961 5.10883C5.55935 6.45909 4.80078 8.29044 4.80078 10.2C4.80078 12.1096 5.55935 13.9409 6.90961 15.2912C8.25987 16.6414 10.0912 17.4 12.0008 17.4ZM12.0008 17.4V21M7.50078 21H16.5008M14.7008 10.2C14.7008 10.9161 14.4163 11.6028 13.91 12.1092C13.4036 12.6155 12.7169 12.9 12.0008 12.9C11.2847 12.9 10.5979 12.6155 10.0916 12.1092C9.58524 11.6028 9.30078 10.9161 9.30078 10.2C9.30078 9.48392 9.58524 8.79716 10.0916 8.29081C10.5979 7.78446 11.2847 7.5 12.0008 7.5C12.7169 7.5 13.4036 7.78446 13.91 8.29081C14.4163 8.79716 14.7008 9.48392 14.7008 10.2Z" stroke="#2C80FF" stroke-width="0.8" stroke-linecap="round" stroke-linejoin="round"/>
</svg>
