<svg width="30" height="30" viewBox="0 0 30 30" fill="none" xmlns="http://www.w3.org/2000/svg">
<path d="M29.3452 7.77977C29.1726 7.14348 28.8365 6.56344 28.3703 6.09726C27.9041 5.63108 27.3241 5.29501 26.6878 5.12242C24.3581 4.48633 14.9812 4.48633 14.9812 4.48633C14.9812 4.48633 5.60391 4.50508 3.27375 5.14117C2.63747 5.31376 2.05742 5.64983 1.59124 6.11601C1.12507 6.58219 0.78899 7.16223 0.616406 7.79852C0 10.1287 0 15.0004 0 15.0004C0 15.0004 0 19.8721 0.635625 22.221C0.808208 22.8573 1.14429 23.4373 1.61046 23.9035C2.07664 24.3697 2.65669 24.7058 3.29297 24.8784C5.62266 25.5145 15 25.5145 15 25.5145C15 25.5145 24.3773 25.5145 26.7075 24.8788C27.3438 24.7062 27.9238 24.3702 28.39 23.904C28.8562 23.4378 29.1923 22.8578 29.3648 22.2215C30 19.8913 30 15.0004 30 15.0004C30 15.0004 29.9813 10.1287 29.3452 7.77977Z" fill="#FF0000"/>
<path d="M11.9966 19.5054L19.7755 14.9998L11.9961 10.4941L11.9966 19.5054Z" fill="white"/>
</svg>
