<svg width="24" height="24" viewBox="0 0 24 24" fill="none" xmlns="http://www.w3.org/2000/svg">
<g id="Apple" clip-path="url(#clip0_536_11802)">
<path id="back" fill-rule="evenodd" clip-rule="evenodd" d="M0 12C0 5.37258 5.37258 0 12 0C18.6274 0 24 5.37258 24 12C24 18.6274 18.6274 24 12 24C5.37258 24 0 18.6274 0 12Z" fill="white"/>
<path id="Apple_2" fill-rule="evenodd" clip-rule="evenodd" d="M13.9538 7.08054C14.412 6.48908 14.7593 5.65312 14.6337 4.7998C13.8848 4.85185 13.0095 5.33096 12.4988 5.95545C12.0332 6.5213 11.6506 7.36305 11.8 8.18001C12.6187 8.20562 13.4636 7.71494 13.9538 7.08054ZM18 15.1073C17.6724 15.8375 17.5147 16.1638 17.0927 16.8106C16.5039 17.7134 15.6738 18.8377 14.6441 18.846C13.7302 18.8559 13.4946 18.2471 12.2539 18.2545C11.0132 18.2611 10.7545 18.8575 9.83901 18.8484C8.81016 18.8394 8.02354 17.825 7.43481 16.9221C5.78766 14.3993 5.61441 11.4379 6.63012 9.86264C7.3527 8.74417 8.49239 8.08993 9.56312 8.08993C10.6527 8.08993 11.3384 8.6913 12.2408 8.6913C13.1161 8.6913 13.649 8.08828 14.9094 8.08828C15.8635 8.08828 16.8743 8.61117 17.5936 9.51322C15.2353 10.8134 15.6171 14.2011 18 15.1073Z" fill="#0B0B0A"/>
</g>
<defs>
<clipPath id="clip0_536_11802">
<rect width="24" height="24" fill="white"/>
</clipPath>
</defs>
</svg>
