<svg width="24" height="24" viewBox="0 0 24 24" fill="none" xmlns="http://www.w3.org/2000/svg">
<g id="Kickstarter" clip-path="url(#clip0_536_11779)">
<circle id="Oval" cx="12" cy="12" r="12" fill="#2BDE73"/>
<path id="K" fill-rule="evenodd" clip-rule="evenodd" d="M10.6996 10.0895L12.9003 6.90107C13.3164 6.30036 13.8535 6 14.512 6C15.0492 6 15.514 6.19055 15.907 6.57178C16.2997 6.95301 16.496 7.40933 16.496 7.94074C16.496 8.33354 16.3923 8.68018 16.1842 8.98054L14.2 11.8657L16.6261 14.9416C16.8687 15.2478 16.99 15.606 16.99 16.016C16.99 16.5591 16.7996 17.0253 16.4182 17.4152C16.037 17.8052 15.5746 18 15.0319 18C14.4368 18 13.9835 17.8067 13.6715 17.4195L10.6996 13.7113V15.7561C10.6996 16.3396 10.5986 16.7929 10.3964 17.1164C10.0267 17.7054 9.48951 18 8.78491 18C8.1437 18 7.64675 17.7834 7.29458 17.3502C6.96529 16.9517 6.80078 16.423 6.80078 15.7648V8.18336C6.80078 7.55951 6.96805 7.04559 7.30326 6.64121C7.65556 6.21383 8.14068 6 8.75874 6C9.34801 6 9.83892 6.21383 10.2317 6.64121C10.4512 6.87792 10.5898 7.11765 10.6475 7.36028C10.6823 7.51059 10.6996 7.79056 10.6996 8.20072V10.0895Z" fill="white"/>
</g>
<defs>
<clipPath id="clip0_536_11779">
<rect width="24" height="24" fill="white"/>
</clipPath>
</defs>
</svg>
