<svg width="24" height="24" viewBox="0 0 24 24" fill="none" xmlns="http://www.w3.org/2000/svg">
<path d="M12.0238 0H11.9691C5.35877 0 0 5.36035 0 11.9727V12.0273C0 18.6397 5.35877 24 11.9691 24H12.0238C18.6342 24 23.9929 18.6397 23.9929 12.0273V11.9727C23.9929 5.36035 18.6342 0 12.0238 0Z" fill="#FF0000"/>
<path fill-rule="evenodd" clip-rule="evenodd" d="M10.903 15.2818C10.8887 15.3314 10.8753 15.3734 10.8643 15.4155C10.2297 17.9027 10.1591 18.4551 9.50679 19.6104C9.19578 20.1595 8.84525 20.68 8.45774 21.1777C8.41403 21.2341 8.37284 21.3064 8.28542 21.2887C8.18959 21.2685 8.18203 21.1819 8.17194 21.1054C8.06771 20.3495 8.0097 19.5919 8.03492 18.8284C8.06771 17.8346 8.19043 17.4932 9.47149 12.1051C9.48998 12.0227 9.46897 11.9546 9.44207 11.8806C9.13525 11.0532 9.07473 10.2132 9.34288 9.3623C9.92288 7.52423 12.0059 7.38381 12.3698 8.89984C12.5943 9.83737 12.0008 11.065 11.5452 12.8795C11.1678 14.3762 12.9297 15.4407 14.4352 14.3476C15.8238 13.3403 16.3626 10.9254 16.2601 9.21347C16.0583 5.80051 12.3169 5.0631 9.9439 6.16207C7.22292 7.42081 6.60424 10.7942 7.83318 12.3363C7.98869 12.5323 8.28206 12.6525 8.23078 12.8509C8.15177 13.1595 8.08199 13.4706 7.99625 13.7775C7.93237 14.0062 7.5684 14.0895 7.33723 13.9953C6.88416 13.812 6.50673 13.5236 6.20076 13.1435C5.15759 11.8512 4.85918 9.29503 6.23858 7.13072C7.76677 4.73349 10.6096 3.76317 13.2054 4.05746C16.3055 4.40977 18.2649 6.52868 18.6314 8.93263C18.7987 10.0274 18.6785 12.7273 17.1419 14.636C15.3741 16.8289 12.5085 16.9744 11.1863 15.6282C11.0846 15.5248 11.003 15.4045 10.903 15.2809V15.2818Z" fill="white"/>
</svg>
