<svg width="24" height="24" viewBox="0 0 24 24" fill="none" xmlns="http://www.w3.org/2000/svg">
<g id="GooglePlay" clip-path="url(#clip0_536_11791)">
<circle id="Oval" cx="12" cy="12" r="12" fill="white"/>
<g id="Google_Play_symbol_2016" clip-path="url(#clip1_536_11791)">
<g id="g3042" clip-path="url(#clip2_536_11791)">
<path id="path16" fill-rule="evenodd" clip-rule="evenodd" d="M16.8248 14.4228C18.543 13.4703 19.8552 12.7427 19.9746 12.6764C20.3307 12.479 20.7037 11.9752 19.9746 11.5726C19.7403 11.4429 18.4633 10.7376 16.8228 9.83105L14.5664 12.134L16.8248 14.4228Z" fill="#FFE300"/>
<path id="path23" fill-rule="evenodd" clip-rule="evenodd" d="M14.5644 12.1338L7.34766 19.4994C7.51063 19.5204 7.70665 19.4766 7.93212 19.3516C8.3989 19.0929 13.4118 16.3135 16.8229 14.4223L14.5644 12.1338V12.1338Z" fill="#FF4E54"/>
<path id="path30" fill-rule="evenodd" clip-rule="evenodd" d="M14.5657 12.1336L16.8221 9.83059C16.8221 9.83059 8.43546 5.19603 7.93338 4.91859C7.7404 4.81191 7.52999 4.77469 7.34375 4.8167L14.5657 12.1336Z" fill="#00F085"/>
<path id="path37" fill-rule="evenodd" clip-rule="evenodd" d="M14.5656 12.1337L7.34354 4.81689C7.04524 4.88429 6.80078 5.1458 6.80078 5.67142C6.80078 6.52527 6.80078 17.9045 6.80078 18.6214C6.80078 19.1164 6.99309 19.4646 7.34872 19.4993L14.5656 12.1337Z" fill="#00E0FF"/>
</g>
</g>
</g>
<defs>
<clipPath id="clip0_536_11791">
<rect width="24" height="24" fill="white"/>
</clipPath>
<clipPath id="clip1_536_11791">
<rect width="13.6" height="14.8" fill="white" transform="translate(6.80078 4.7998)"/>
</clipPath>
<clipPath id="clip2_536_11791">
<rect width="13.6" height="14.8" fill="white" transform="translate(6.80078 4.7998)"/>
</clipPath>
</defs>
</svg>
