<svg width="24" height="24" viewBox="0 0 24 24" fill="none" xmlns="http://www.w3.org/2000/svg">
<g clip-path="url(#clip0_536_11765)">
<path d="M12 0C18.6274 0 24 5.37258 24 12C24 18.6274 18.6274 24 12 24C5.37258 24 0 18.6274 0 12C0 5.37258 5.37258 0 12 0ZM10.7227 3.6C7.11874 3.60016 3.60025 6.59425 3.6 10.9816C3.6 15.3298 7.1186 18.3245 10.7227 18.3246C11.3484 18.3246 11.9745 18.2359 12.5719 18.0679C13.2737 19.323 14.2132 20.3999 15.9868 20.4C18.9264 20.4 19.2592 17.5746 19.1929 16.902H18.1394C18.0824 17.4157 17.7604 18.0572 16.9547 18.0575C16.215 18.0575 15.6832 17.5246 15.1711 16.7144C16.017 16.041 16.7004 15.1704 17.1679 14.1738C17.6354 13.1773 17.8748 12.0814 17.8652 10.9723C17.8652 6.56473 14.3742 3.6 10.7227 3.6ZM10.7227 5.0625C13.4636 5.0625 14.6401 7.06854 14.6402 10.9816C14.6308 12.5428 14.441 13.808 14.0238 14.7469C13.3315 13.65 12.4486 12.791 10.7414 12.791C9.64144 12.7912 8.78809 13.1664 8.25703 13.6406L8.69297 14.55C8.92051 14.4413 9.1578 14.4012 9.40429 14.4012C10.6847 14.4012 11.3396 15.5575 11.8992 16.7039C11.5388 16.8126 11.1495 16.8622 10.7227 16.8622C8.01974 16.8619 6.85313 14.8752 6.85313 10.9816C6.85322 7.06867 8.01985 5.06263 10.7227 5.0625Z" fill="black"/>
</g>
<defs>
<clipPath id="clip0_536_11765">
<rect width="24" height="24" fill="white"/>
</clipPath>
</defs>
</svg>
