<svg width="24" height="24" viewBox="0 0 24 24" fill="none" xmlns="http://www.w3.org/2000/svg">
<g clip-path="url(#clip0_536_11750)">
<path d="M16.9637 7.97175C17.3211 7.97175 17.6109 7.68196 17.6109 7.3245C17.6109 6.96703 17.3211 6.67725 16.9637 6.67725C16.6062 6.67725 16.3164 6.96703 16.3164 7.3245C16.3164 7.68196 16.6062 7.97175 16.9637 7.97175Z" fill="black"/>
<path d="M11.987 10.1108C8.837 10.1108 6.27425 11.7286 6.27425 13.7168C6.27425 15.7051 8.837 17.3228 11.987 17.3228C15.137 17.3228 17.6997 15.7051 17.6997 13.7168C17.6997 11.7286 15.137 10.1108 11.987 10.1108ZM8.7635 12.9578C8.77682 12.6518 8.90777 12.3627 9.12904 12.1509C9.3503 11.939 9.6448 11.8208 9.95112 11.8208C10.2574 11.8208 10.5519 11.939 10.7732 12.1509C10.9945 12.3627 11.1254 12.6518 11.1387 12.9578C11.1254 13.2639 10.9945 13.553 10.7732 13.7648C10.5519 13.9766 10.2574 14.0949 9.95112 14.0949C9.6448 14.0949 9.3503 13.9766 9.12904 13.7648C8.90777 13.553 8.77682 13.2639 8.7635 12.9578ZM14.495 15.8116C14.4725 15.8348 14.2655 16.0441 13.8507 16.2451C13.3152 16.5038 12.6838 16.6351 11.975 16.6351C11.261 16.6351 10.6377 16.5016 10.1217 16.2383C9.71975 16.0328 9.52925 15.8176 9.509 15.7936C9.47134 15.7503 9.44268 15.6999 9.42468 15.6453C9.40669 15.5908 9.39972 15.5333 9.40419 15.476C9.40866 15.4188 9.42447 15.363 9.4507 15.312C9.47694 15.2609 9.51307 15.2156 9.557 15.1786C9.64445 15.1038 9.75788 15.0666 9.87263 15.075C9.98738 15.0835 10.0942 15.1368 10.1697 15.2236C10.1712 15.2251 10.6895 15.7628 11.9757 15.7628C13.2777 15.7628 13.8477 15.2258 13.8717 15.2026C13.9526 15.1213 14.0623 15.0753 14.177 15.0746C14.2916 15.0739 14.4019 15.1185 14.4837 15.1988C14.5656 15.2791 14.6126 15.3883 14.6147 15.5029C14.6168 15.6175 14.5738 15.7284 14.495 15.8116ZM14.1657 14.1451C13.511 14.1451 12.9777 13.6126 12.9777 12.9578C12.9777 12.3031 13.5102 11.7706 14.1657 11.7706C14.8205 11.7706 15.353 12.3031 15.353 12.9578C15.353 13.6126 14.8205 14.1451 14.1657 14.1451ZM6.81875 10.9418C6.67589 10.8931 6.52345 10.8791 6.37409 10.901C6.22474 10.9229 6.08276 10.9801 5.95994 11.0679C5.83712 11.1557 5.737 11.2715 5.66788 11.4057C5.59876 11.5399 5.56263 11.6886 5.5625 11.8396C5.5625 12.0218 5.6165 12.1988 5.714 12.3503C5.954 11.8426 6.32975 11.3626 6.81875 10.9418Z" fill="black"/>
<path d="M12 0C5.37225 0 0 5.373 0 12C0 18.627 5.373 24 12 24C18.6278 24 24 18.627 24 12C24 5.373 18.6278 0 12 0ZM18.546 13.317C18.564 13.4528 18.573 13.587 18.573 13.7167C18.573 16.1857 15.6187 18.195 11.9872 18.195C8.35575 18.195 5.4015 16.1857 5.4015 13.7167C5.4015 13.5817 5.41125 13.4422 5.43075 13.3005C5.20127 13.1322 5.01466 12.9123 4.88605 12.6585C4.75744 12.4046 4.69045 12.1241 4.6905 11.8395C4.6909 11.3567 4.88288 10.8937 5.2243 10.5523C5.56571 10.2109 6.02866 10.0189 6.5115 10.0185C6.903 10.0185 7.284 10.146 7.5975 10.3792C8.72625 9.693 10.1655 9.2925 11.679 9.2445L12.8392 5.94825L15.6195 6.61275C15.7482 6.3683 15.9413 6.16373 16.178 6.02121C16.4146 5.87869 16.6857 5.80366 16.962 5.80425C17.365 5.80484 17.7513 5.96521 18.0363 6.25018C18.3213 6.53515 18.4817 6.92149 18.4823 7.3245C18.4817 7.72744 18.3213 8.1137 18.0363 8.39856C17.7513 8.68341 17.3649 8.8436 16.962 8.844C16.5842 8.84336 16.2202 8.70231 15.9406 8.44824C15.661 8.19417 15.4859 7.84524 15.4493 7.46925L13.4017 6.9795L12.6 9.258C14.0055 9.3465 15.339 9.74325 16.392 10.3875C16.707 10.149 17.0918 10.0185 17.4885 10.0185C17.9713 10.0189 18.4343 10.2109 18.7757 10.5523C19.1171 10.8937 19.3091 11.3567 19.3095 11.8395C19.3098 12.1289 19.2405 12.4141 19.1077 12.6712C18.9748 12.9283 18.7822 13.1498 18.546 13.317Z" fill="black"/>
<path d="M17.4888 10.8906C17.3781 10.8906 17.2682 10.9099 17.1641 10.9476C17.6561 11.3729 18.0326 11.8574 18.2711 12.3719C18.3783 12.2159 18.4376 12.0306 18.4376 11.8386C18.4376 11.3166 18.0116 10.8906 17.4888 10.8906Z" fill="black"/>
</g>
<defs>
<clipPath id="clip0_536_11750">
<rect width="24" height="24" fill="white"/>
</clipPath>
</defs>
</svg>
