<svg width="24" height="24" viewBox="0 0 24 24" fill="none" xmlns="http://www.w3.org/2000/svg">
<path fill-rule="evenodd" clip-rule="evenodd" d="M11.8717 1.81146C9.70205 0.727403 7.29762 1.29493 5.78515 2.80215C3.33337 3.15219 1.25 5.23575 1.25 8.01933V15.9808C1.25 18.7644 3.33337 20.848 5.78515 21.198C7.29762 22.7052 9.70205 23.2727 11.8716 22.1887L19.8385 18.208C22.3109 16.9726 23.2015 14.2803 22.5359 12.0001C23.2015 9.71985 22.3109 7.0275 19.8385 5.79217L11.8717 1.81146ZM5.75 8.72181C5.75 6.51697 8.07251 5.08124 10.0477 6.06817L16.6087 9.3464C18.7971 10.4399 18.7971 13.5603 16.6087 14.6537L10.0477 17.932C8.07251 18.9189 5.75 17.4832 5.75 15.2783V8.72181Z" fill="#8BC94D"/>
<path d="M11.1422 8.49925C9.58439 7.72088 7.75 8.85249 7.75 10.5949V13.4049C7.75 15.1473 9.58438 16.2789 11.1422 15.5006L13.954 14.0956C15.682 13.2322 15.682 10.7676 13.954 9.90421L11.1422 8.49925Z" fill="#8BC94D"/>
</svg>
