<svg width="24" height="24" viewBox="0 0 24 24" fill="none" xmlns="http://www.w3.org/2000/svg">
<path d="M12.0238 0H11.9691C5.35876 0 0 5.36035 0 11.9727V12.0273C0 18.6397 5.35876 24 11.9691 24H12.0238C18.6342 24 23.9929 18.6397 23.9929 12.0273V11.9727C23.9929 5.36035 18.6342 0 12.0238 0Z" fill="#A544FF"/>
<path d="M8.25817 5.75L5.58594 8.42302V18.0447H8.79196V20.7177L11.4642 18.0447H13.6018L18.4117 13.2334V5.75H8.25817ZM17.3424 12.6987L15.2048 14.8369H13.0672L11.1969 16.7078V14.8369H8.79196V6.8187H17.3424V12.6987Z" fill="white"/>
<path d="M15.7403 8.69043H14.6719V11.8974H15.7403V8.69043Z" fill="white"/>
<path d="M12.7989 8.69043H11.7305V11.8974H12.7989V8.69043Z" fill="white"/>
</svg>
