<svg width="24" height="24" viewBox="0 0 24 24" fill="none" xmlns="http://www.w3.org/2000/svg">
<g id="WhatsApp" clip-path="url(#clip0_536_11735)">
<circle id="Oval" cx="12" cy="12" r="12" fill="#25D366"/>
<path id="Page 1" fill-rule="evenodd" clip-rule="evenodd" d="M12.3948 18.6762H12.3918C11.1976 18.6757 10.0241 18.3761 8.98189 17.8076L5.19922 18.7999L6.21153 15.1023C5.58709 14.0202 5.25851 12.7926 5.25904 11.535C5.26061 7.60075 8.46163 4.3999 12.3947 4.3999C14.3035 4.40073 16.0951 5.14384 17.4423 6.49261C18.7895 7.84131 19.531 9.63407 19.5303 11.5407C19.5287 15.474 16.329 18.6746 12.3948 18.6762ZM9.15741 16.5159L9.37398 16.6444C10.2846 17.1848 11.3284 17.4707 12.3926 17.4711H12.395C15.6639 17.4711 18.3244 14.8105 18.3257 11.5403C18.3264 9.95556 17.7101 8.4655 16.5903 7.34445C15.4706 6.2234 13.9815 5.60573 12.3973 5.60518C9.12594 5.60518 6.46536 8.26551 6.46406 11.5355C6.4636 12.6561 6.77716 13.7475 7.37084 14.6918L7.51186 14.9162L6.91272 17.1047L9.15741 16.5159ZM15.9894 13.2374C15.9448 13.1631 15.826 13.1184 15.6477 13.0292C15.4694 12.9399 14.5928 12.5087 14.4294 12.4491C14.266 12.3896 14.1471 12.3599 14.0282 12.5383C13.9094 12.7168 13.5677 13.1184 13.4637 13.2374C13.3597 13.3564 13.2557 13.3713 13.0774 13.2821C12.8991 13.1928 12.3246 13.0046 11.6436 12.3971C11.1136 11.9243 10.7558 11.3405 10.6518 11.162C10.5477 10.9835 10.6407 10.887 10.7299 10.7981C10.8101 10.7182 10.9082 10.5898 10.9974 10.4858C11.0865 10.3817 11.1162 10.3073 11.1757 10.1883C11.2351 10.0693 11.2054 9.96522 11.1608 9.87597C11.1162 9.78672 10.7597 8.90912 10.6111 8.55212C10.4663 8.20446 10.3194 8.25155 10.2099 8.24606C10.1061 8.24084 9.98706 8.23975 9.86821 8.23975C9.74936 8.23975 9.55619 8.28437 9.39277 8.46287C9.22934 8.64137 8.76875 9.07272 8.76875 9.95026C8.76875 10.8279 9.40761 11.6757 9.49677 11.7946C9.58591 11.9137 10.754 13.7145 12.5425 14.4868C12.9679 14.6705 13.3 14.7802 13.559 14.8624C13.9861 14.9981 14.3748 14.979 14.6819 14.933C15.0245 14.8819 15.7368 14.5018 15.8854 14.0853C16.0339 13.6688 16.0339 13.3118 15.9894 13.2374Z" fill="#FDFDFD"/>
</g>
<defs>
<clipPath id="clip0_536_11735">
<rect width="24" height="24" fill="white"/>
</clipPath>
</defs>
</svg>
